<svg width="20" height="20" viewBox="0 0 20 20" fill="none" xmlns="http://www.w3.org/2000/svg">
<path d="M8.14056 17.5H11.3968M15.4671 17.5V4.16667C15.4671 3.72464 15.2955 3.30072 14.9902 2.98816C14.6849 2.67559 14.2707 2.5 13.8389 2.5H5.69839C5.26659 2.5 4.85247 2.67559 4.54714 2.98816C4.24181 3.30072 4.07028 3.72464 4.07028 4.16667V17.5H15.4671ZM15.4671 17.5H17.0952H15.4671ZM15.4671 17.5H11.3968H15.4671ZM4.07028 17.5H2.44217H4.07028ZM4.07028 17.5H8.14056H4.07028ZM7.3265 5.83333H8.14056H7.3265ZM7.3265 9.16667H8.14056H7.3265ZM11.3968 5.83333H12.2108H11.3968ZM11.3968 9.16667H12.2108H11.3968ZM8.14056 17.5V13.3333C8.14056 13.1123 8.22632 12.9004 8.37899 12.7441C8.53165 12.5878 8.73871 12.5 8.95461 12.5H10.5827C10.7986 12.5 11.0057 12.5878 11.1583 12.7441C11.311 12.9004 11.3968 13.1123 11.3968 13.3333V17.5H8.14056Z" stroke="black" stroke-width="2" stroke-linecap="round" stroke-linejoin="round"/>
</svg>
