<svg width="23" height="23" viewBox="0 0 23 23" fill="none" xmlns="http://www.w3.org/2000/svg">
<path d="M20.1407 10.4558C20.1407 12.3713 19.5727 14.2439 18.5085 15.8366C17.4442 17.4293 15.9316 18.6706 14.1618 19.4036C12.3921 20.1366 10.4447 20.3283 8.56598 19.9546C6.68726 19.5808 4.96157 18.6583 3.60714 17.3037C2.25272 15.9492 1.3304 14.2234 0.956821 12.3446C0.583242 10.4658 0.775183 8.51849 1.50837 6.74881C2.24156 4.97914 3.48306 3.46663 5.07588 2.40256C6.66869 1.33849 8.54128 0.770646 10.4568 0.770849C13.0253 0.771121 15.4884 1.79162 17.3045 3.60787C19.1205 5.42412 20.1407 7.88736 20.1407 10.4558Z" stroke="#9B9B9B" stroke-width="1.5" stroke-linecap="round" stroke-linejoin="round"/>
<path d="M22.2292 22.2282L17.6761 17.6751" stroke="#9B9B9B" stroke-width="1.5" stroke-linecap="round" stroke-linejoin="round"/>
</svg>
