<svg width="23" height="24" viewBox="0 0 23 24" fill="none" xmlns="http://www.w3.org/2000/svg">
<path d="M22.9993 10.2251L22.2003 1.65116C22.1598 1.20683 21.8116 0.855752 21.3743 0.811868L12.9361 0H12.9253C12.8389 0 12.7714 0.027428 12.7201 0.0795411L0.0789415 12.9241C0.0539173 12.9494 0.034064 12.9796 0.0205182 13.0128C0.00697233 13.0459 0 13.0815 0 13.1174C0 13.1533 0.00697233 13.1889 0.0205182 13.2221C0.034064 13.2553 0.0539173 13.2854 0.0789415 13.3108L9.89926 23.2891C9.95055 23.3412 10.018 23.3686 10.0909 23.3686C10.1638 23.3686 10.2313 23.3412 10.2826 23.2891L22.9237 10.4446C22.9777 10.387 23.0047 10.3074 22.9993 10.2251ZM10.0882 20.5353L2.78911 13.1188L13.5785 2.15584L20.246 2.79765L20.8776 9.57236L10.0882 20.5353ZM16.0349 4.66275C14.7257 4.66275 13.6595 5.74616 13.6595 7.07641C13.6595 8.40667 14.7257 9.49008 16.0349 9.49008C17.3441 9.49008 18.4104 8.40667 18.4104 7.07641C18.4104 5.74616 17.3441 4.66275 16.0349 4.66275ZM16.0349 7.95411C15.5571 7.95411 15.1711 7.56189 15.1711 7.07641C15.1711 6.59094 15.5571 6.19872 16.0349 6.19872C16.5127 6.19872 16.8987 6.59094 16.8987 7.07641C16.8987 7.56189 16.5127 7.95411 16.0349 7.95411Z" fill="#CACACA"/>
</svg>
