<svg width="12" height="86" viewBox="0 0 12 86" fill="none" xmlns="http://www.w3.org/2000/svg">
<path d="M8.04436 5.37773L10.6895 2.83946C11.0073 2.52779 11.1841 2.10843 11.1816 1.67241C11.1791 1.23639 10.9975 0.818898 10.6762 0.510579C10.3549 0.20226 9.91987 0.027997 9.46549 0.0256144C9.0111 0.0232318 8.57408 0.192923 8.24929 0.497854L5.60416 3.03611L2.95902 0.497854C2.79944 0.341333 2.60909 0.216742 2.39899 0.131289C2.18888 0.0458359 1.96321 0.00122126 1.73502 2.47236e-05C1.50683 -0.00117181 1.28065 0.0410737 1.06959 0.124319C0.858528 0.207563 0.666768 0.330152 0.505411 0.48499C0.344053 0.639828 0.216303 0.82384 0.129553 1.02637C0.0428031 1.22891 -0.00122115 1.44594 2.57646e-05 1.66492C0.00127268 1.88389 0.0477659 2.10044 0.136817 2.30206C0.225868 2.50367 0.355709 2.68633 0.51882 2.83946L3.16395 5.37773L0.51882 7.91597C0.20105 8.22764 0.02421 8.64701 0.0266929 9.08303C0.0291758 9.51906 0.210781 9.93655 0.532082 10.2449C0.853383 10.5532 1.28845 10.7275 1.74283 10.7298C2.19721 10.7322 2.63423 10.5625 2.95902 10.2576L5.60416 7.71933L8.24929 10.2576C8.57408 10.5625 9.0111 10.7322 9.46549 10.7298C9.91987 10.7275 10.3549 10.5532 10.6762 10.2449C10.9975 9.93655 11.1791 9.51906 11.1816 9.08303C11.1841 8.64701 11.0073 8.22764 10.6895 7.91597L8.04436 5.37773Z" fill="#A4E0A4"/>
<path d="M8.04436 80.648L10.6895 78.1097C11.0073 77.798 11.1841 77.3787 11.1816 76.9427C11.1791 76.5066 10.9975 76.0891 10.6762 75.7808C10.3549 75.4725 9.91987 75.2982 9.46549 75.2959C9.0111 75.2935 8.57408 75.4632 8.24929 75.7681L5.60416 78.3064L2.95902 75.7681C2.79944 75.6116 2.60909 75.487 2.39899 75.4015C2.18888 75.3161 1.96321 75.2715 1.73502 75.2703C1.50683 75.2691 1.28065 75.3113 1.06959 75.3946C0.858528 75.4778 0.666768 75.6004 0.505411 75.7552C0.344053 75.9101 0.216303 76.0941 0.129553 76.2966C0.0428031 76.4992 -0.00122115 76.7162 2.57646e-05 76.9352C0.00127268 77.1541 0.0477659 77.3707 0.136817 77.5723C0.225868 77.7739 0.355709 77.9566 0.51882 78.1097L3.16395 80.648L0.51882 83.1862C0.20105 83.4979 0.02421 83.9173 0.0266929 84.3533C0.0291758 84.7893 0.210781 85.2068 0.532082 85.5151C0.853383 85.8234 1.28845 85.9977 1.74283 86.0001C2.19721 86.0025 2.63423 85.8328 2.95902 85.5278L5.60416 82.9896L8.24929 85.5278C8.57408 85.8328 9.0111 86.0025 9.46549 86.0001C9.91987 85.9977 10.3549 85.8234 10.6762 85.5151C10.9975 85.2068 11.1791 84.7893 11.1816 84.3533C11.1841 83.9173 11.0073 83.4979 10.6895 83.1862L8.04436 80.648Z" fill="#A4E0A4"/>
</svg>
