<svg width="20" height="18" viewBox="0 0 20 18" fill="none" xmlns="http://www.w3.org/2000/svg">
<path d="M17.3834 7.65267C17.3834 5.82706 16.6054 4.07623 15.2205 2.78534C13.8356 1.49444 11.9573 0.769225 9.99881 0.769225C8.04031 0.769225 6.16201 1.49444 4.77714 2.78534C3.39227 4.07623 2.61425 5.82706 2.61425 7.65267" stroke="#55AB60" stroke-width="1.5" stroke-linecap="round" stroke-linejoin="round"/>
<path d="M0.769225 11.4713V9.8571C0.769287 9.47336 0.90695 9.10064 1.16033 8.7982C1.41372 8.49575 1.76828 8.28093 2.16768 8.18787L3.77382 7.81272C3.85543 7.79377 3.9406 7.7924 4.02287 7.80871C4.10514 7.82502 4.18234 7.85858 4.24862 7.90684C4.3149 7.95511 4.36852 8.01681 4.4054 8.08727C4.44229 8.15773 4.46147 8.23509 4.4615 8.31349V13.014C4.46165 13.0926 4.44256 13.1701 4.40568 13.2408C4.3688 13.3114 4.31511 13.3733 4.2487 13.4217C4.18229 13.4701 4.10491 13.5037 4.02246 13.52C3.94 13.5362 3.85465 13.5348 3.77289 13.5157L2.16675 13.1414C1.76753 13.0481 1.41317 12.8332 1.15997 12.5308C0.906766 12.2284 0.769236 11.8558 0.769225 11.4721V11.4713Z" stroke="#55AB60" stroke-width="1.5"/>
<path d="M19.2308 11.4713V9.8571C19.2307 9.47336 19.0931 9.10064 18.8397 8.7982C18.5863 8.49575 18.2317 8.28093 17.8323 8.18787L16.2262 7.81272C16.1446 7.79377 16.0594 7.7924 15.9771 7.80871C15.8949 7.82502 15.8177 7.85858 15.7514 7.90684C15.6851 7.95511 15.6315 8.01681 15.5946 8.08727C15.5577 8.15773 15.5385 8.23509 15.5385 8.31349V13.014C15.5384 13.0925 15.5575 13.17 15.5943 13.2405C15.6311 13.3111 15.6847 13.3729 15.751 13.4213C15.8173 13.4696 15.8946 13.5033 15.9769 13.5196C16.0592 13.536 16.1445 13.5346 16.2262 13.5157L17.8323 13.1414C18.2317 13.0483 18.5863 12.8335 18.8397 12.531C19.0931 12.2286 19.2307 11.8559 19.2308 11.4721V11.4713Z" stroke="#55AB60" stroke-width="1.5"/>
<path d="M17.3841 13.6758V14.106C17.3841 14.5624 17.1896 15.0001 16.8434 15.3228C16.4972 15.6456 16.0276 15.8269 15.538 15.8269H12.3072" stroke="#55AB60" stroke-width="1.5"/>
<path d="M11.3843 17.1174H8.61512C8.2479 17.1174 7.89572 16.9815 7.63606 16.7394C7.37639 16.4974 7.23052 16.1691 7.23052 15.8268C7.23052 15.4845 7.37639 15.1562 7.63606 14.9142C7.89572 14.6721 8.2479 14.5361 8.61512 14.5361H11.3843C11.7516 14.5361 12.1037 14.6721 12.3634 14.9142C12.6231 15.1562 12.7689 15.4845 12.7689 15.8268C12.7689 16.1691 12.6231 16.4974 12.3634 16.7394C12.1037 16.9815 11.7516 17.1174 11.3843 17.1174Z" stroke="#55AB60" stroke-width="1.5"/>
</svg>
