<svg width="26" height="24" viewBox="0 0 26 24" fill="none" xmlns="http://www.w3.org/2000/svg">
<path d="M18.5065 0H18.4454C17.2946 0.00555308 16.1632 0.293724 15.1537 0.838467C14.1442 1.38321 13.2883 2.16735 12.6634 3.12002C12.0382 2.16694 11.1818 1.38254 10.1717 0.83777C9.16161 0.293005 8.02968 0.00506586 6.87831 0H6.81724C5.00411 0.0166356 3.27091 0.738035 1.99436 2.0074C0.717812 3.27676 0.00109888 4.9915 0 6.77889C0.151199 9.65782 1.16334 12.4283 2.90891 14.7412C5.72741 18.241 9.00681 21.3547 12.6604 23.9999C16.314 21.3547 19.5934 18.241 22.4119 14.7412C24.1574 12.4283 25.1696 9.65782 25.3208 6.77889C25.3197 4.992 24.6034 3.27771 23.3275 2.00842C22.0516 0.739143 20.3191 0.0174044 18.5065 0ZM21.0386 13.7457C18.6058 16.7947 15.7918 19.5282 12.6634 21.8813C9.53439 19.5278 6.71939 16.7944 4.28517 13.7457C2.75378 11.7214 1.85654 9.29965 1.70394 6.77889C1.70311 5.43491 2.2415 4.14514 3.20166 3.19096C4.16181 2.23678 5.4658 1.69562 6.82916 1.68555H6.88874C7.76541 1.68591 8.6272 1.90891 9.39102 2.33304C10.1386 2.74782 10.7732 3.33467 11.2409 4.04355C11.3964 4.27772 11.6086 4.47003 11.8584 4.60312C12.1082 4.73622 12.3876 4.80591 12.6716 4.80591C12.9555 4.80591 13.2349 4.73622 13.4847 4.60312C13.7345 4.47003 13.9467 4.27772 14.1022 4.04355C14.5714 3.33597 15.2058 2.74945 15.9521 2.33304C16.7159 1.90891 17.5777 1.68591 18.4544 1.68555H18.5065C19.8699 1.69562 21.1738 2.23678 22.134 3.19096C23.0942 4.14514 23.6325 5.43491 23.6317 6.77889C23.4661 9.29891 22.5657 11.7181 21.0386 13.7457Z" fill="#EC5353"/>
</svg>
