<svg width="22" height="23" viewBox="0 0 22 23" fill="none" xmlns="http://www.w3.org/2000/svg">
<path d="M14.5894 11.5001C14.5898 11.2761 14.5156 11.0591 14.3796 10.8867L9.82042 5.13673C9.66565 4.94102 9.44324 4.81795 9.20213 4.79458C8.96101 4.77122 8.72094 4.84948 8.53473 5.01214C8.34851 5.17481 8.23141 5.40856 8.20918 5.66197C8.18695 5.91538 8.26141 6.16769 8.41619 6.36339L12.5012 11.5001L8.56208 16.6367C8.48634 16.7348 8.42978 16.8475 8.39564 16.9686C8.36151 17.0897 8.35048 17.2167 8.3632 17.3422C8.37591 17.4678 8.4121 17.5895 8.46971 17.7003C8.52731 17.8111 8.60519 17.9089 8.69886 17.988C8.79261 18.0757 8.90261 18.1422 9.02194 18.1832C9.14128 18.2242 9.26739 18.2389 9.39237 18.2263C9.51735 18.2137 9.63851 18.1741 9.74825 18.11C9.858 18.0459 9.95397 17.9587 10.0301 17.8538L14.4343 12.1038C14.5488 11.9264 14.6034 11.7139 14.5894 11.5001Z" fill="black"/>
</svg>
