<svg width="24" height="24" viewBox="0 0 24 24" fill="none" xmlns="http://www.w3.org/2000/svg">
<path d="M11.5439 16C11.3191 16.0005 11.1013 15.9191 10.9282 15.77L5.15627 10.77C4.95981 10.6003 4.83627 10.3564 4.81282 10.092C4.78936 9.82753 4.86792 9.56425 5.03121 9.36003C5.1945 9.15581 5.42914 9.02739 5.68351 9.00301C5.93789 8.97863 6.19116 9.06029 6.38761 9.23003L11.5439 13.71L16.7001 9.39003C16.7985 9.30697 16.9118 9.24493 17.0333 9.2075C17.1548 9.17007 17.2823 9.15798 17.4083 9.17192C17.5344 9.18586 17.6566 9.22555 17.7678 9.28873C17.879 9.3519 17.9772 9.4373 18.0566 9.54003C18.1447 9.64285 18.2114 9.76348 18.2525 9.89435C18.2937 10.0252 18.3084 10.1635 18.2958 10.3006C18.2831 10.4377 18.2434 10.5705 18.1791 10.6909C18.1147 10.8112 18.0272 10.9165 17.9219 11L12.1499 15.83C11.9719 15.9555 11.7585 16.0154 11.5439 16Z" fill="black"/>
</svg>
