<svg width="57" height="80" viewBox="0 0 57 80" fill="none" xmlns="http://www.w3.org/2000/svg">
<path d="M44.9337 8.60992C46.169 8.61214 47.3531 9.06835 48.2274 9.87892C49.1017 10.6895 49.5952 11.7885 49.6 12.9359V21.7061C49.5952 22.8535 49.1017 23.9525 48.2274 24.7631C47.3531 25.5736 46.169 26.0299 44.9337 26.0321H35.5014" stroke="black" stroke-width="2.4923" stroke-linecap="round" stroke-linejoin="round"/>
<path d="M15.1039 78.7371C18.3632 78.7371 21.0054 76.2831 21.0054 73.2558C21.0054 70.2285 18.3632 67.7745 15.1039 67.7745C11.8446 67.7745 9.20242 70.2285 9.20242 73.2558C9.20242 76.2831 11.8446 78.7371 15.1039 78.7371Z" stroke="black" stroke-width="2.4923" stroke-linecap="round" stroke-linejoin="round"/>
<path d="M8.20296 7.5161e-06C8.20296 7.5161e-06 7.91246 23.1565 29.8546 20.3315C32.9049 -0.0927517 8.20296 7.5161e-06 8.20296 7.5161e-06Z" fill="#A3CB38"/>
<path d="M8.39402 3.28042C9.08397 9.07375 12.5609 22.4819 29.8822 20.2557L8.39402 3.28042Z" fill="#C4E538"/>
<path d="M29.8552 20.1295L11.5625 0.169073C17.7721 0.801534 32.261 4.01444 29.8552 20.1295Z" fill="#A2E54C"/>
<path d="M1.25794 52.1739H41.2023" stroke="#A2E54C" stroke-width="2.4923" stroke-linecap="round" stroke-linejoin="round"/>
<path d="M55.4998 53.8603C55.4998 56.5442 54.3521 59.1181 52.3091 61.0158C50.2661 62.9136 47.4951 63.9797 44.6059 63.9797H12.3781C9.48886 63.9797 6.71794 62.9136 4.67494 61.0158C2.63194 59.1181 1.4842 56.5442 1.4842 53.8603V36.1515C1.4842 33.4676 2.63194 30.8937 4.67494 28.996C6.71794 27.0982 9.48886 26.0321 12.3781 26.0321H44.6059" stroke="black" stroke-width="2.4923" stroke-linecap="round" stroke-linejoin="round"/>
<path d="M51.6431 70.0347C52.33 70.9112 52.7217 71.9572 52.7686 73.0404C52.8155 74.1237 52.5155 75.1955 51.9065 76.1204C51.2975 77.0453 50.4069 77.7817 49.3474 78.2364C48.2878 78.6912 47.1068 78.8439 45.9538 78.6752C44.8008 78.5066 43.7275 78.0241 42.8697 77.2889C42.0119 76.5537 41.4081 75.5987 41.1347 74.5447C40.8612 73.4908 40.9304 72.3852 41.3335 71.3678C41.7366 70.3503 42.4554 69.4668 43.3992 68.8288C44.0253 68.4042 44.7355 68.0985 45.4891 67.9292C46.2427 67.76 47.0248 67.7306 47.7906 67.8426C48.5564 67.9546 49.2909 68.2059 49.952 68.5821C50.6131 68.9582 51.1878 69.4519 51.6431 70.0347Z" stroke="black" stroke-width="2.4923" stroke-linecap="round" stroke-linejoin="round"/>
<path d="M22.8007 13.5855L33.0875 23.1399" stroke="#A3CB38" stroke-width="2.4923" stroke-linecap="round" stroke-linejoin="round"/>
</svg>
