<svg width="20" height="15" viewBox="0 0 20 15" fill="none" xmlns="http://www.w3.org/2000/svg">
<path d="M12.1761 10.8695V12.5542C12.1761 13.001 11.9757 13.4295 11.6189 13.7455C11.2621 14.0614 10.7782 14.2389 10.2736 14.2389H2.66352C2.15894 14.2389 1.67503 14.0614 1.31823 13.7455C0.961442 13.4295 0.760999 13.001 0.760999 12.5542V2.44574C0.760999 1.99892 0.961442 1.5704 1.31823 1.25445C1.67503 0.938498 2.15894 0.760999 2.66352 0.760999H9.89309C10.9438 0.760999 12.1761 1.51534 12.1761 2.44574V4.13048" stroke="#55AB60" stroke-width="1.5" stroke-linecap="round" stroke-linejoin="round"/>
<path d="M15.2202 10.8695L19.0253 7.49998L15.2202 4.1305" stroke="#55AB60" stroke-width="1.5" stroke-linecap="round" stroke-linejoin="round"/>
<path d="M6.08824 7.5H18.2644" stroke="#55AB60" stroke-width="1.5" stroke-linecap="round" stroke-linejoin="round"/>
</svg>
