<svg width="34" height="32" viewBox="0 0 34 32" fill="none" xmlns="http://www.w3.org/2000/svg">
<g clip-path="url(#clip0_1_2552)">
<path d="M33.9238 16.098C33.9238 7.20605 26.3292 -0.00195312 16.9621 -0.00195312C7.59072 4.68751e-05 -0.00390625 7.20605 -0.00390625 16.1C-0.00390625 24.134 6.19985 30.794 14.3076 32.002V20.752H10.0035V16.1H14.3118V12.55C14.3118 8.51605 16.8455 6.28805 20.7191 6.28805C22.5764 6.28805 24.5164 6.60205 24.5164 6.60205V10.562H22.3771C20.2717 10.562 19.6145 11.804 19.6145 13.078V16.098H24.3171L23.5666 20.75H19.6124V32C27.7201 30.792 33.9238 24.132 33.9238 16.098Z" fill="#4267B2"/>
</g>
<defs>
<clipPath id="clip0_1_2552">
<rect width="33.9235" height="32" fill="white"/>
</clipPath>
</defs>
</svg>
