<svg width="24" height="24" viewBox="0 0 24 24" fill="none" xmlns="http://www.w3.org/2000/svg">
<g clip-path="url(#clip0_1_833)">
<path d="M17.4193 9.29072C17.4193 4.24458 12.4518 0.251775 12.2405 0.0841245C12.0997 -0.0273904 11.9006 -0.0273904 11.7596 0.0841245C11.5483 0.251775 6.58081 4.24458 6.58081 9.29072C6.58081 13.9207 10.7615 17.6611 11.613 18.3764V22.4517C11.613 22.6655 11.7863 22.8388 12.0001 22.8388C12.2138 22.8388 12.3871 22.6655 12.3871 22.4517V18.3764C13.2388 17.6611 17.4193 13.9207 17.4193 9.29072ZM12.3871 17.3343V12.9537L14.5704 11.1368C14.7348 10.9999 14.7571 10.7557 14.6203 10.5913C14.4834 10.4268 14.2392 10.4045 14.075 10.5414L12.3871 11.9465V10.6304L14.5704 8.81329C14.7348 8.67663 14.7571 8.43243 14.6203 8.268C14.4834 8.10356 14.2392 8.08126 14.075 8.2181L12.3871 9.62394V7.92079L14.5704 6.10366C14.7348 5.96701 14.7571 5.72281 14.6203 5.55837C14.4834 5.39394 14.2392 5.37163 14.075 5.50847L12.3871 6.91432V3.87147C12.3871 3.65771 12.2138 3.48438 12.0001 3.48438C11.7863 3.48438 11.613 3.65771 11.613 3.87147V6.91432L9.92531 5.50923C9.76088 5.37239 9.51668 5.39469 9.37984 5.55913C9.24299 5.72357 9.26549 5.96776 9.42992 6.10461L11.613 7.92154V9.6247L9.92531 8.21961C9.76088 8.08277 9.51668 8.10507 9.37984 8.26951C9.24299 8.43395 9.26549 8.67814 9.42992 8.81499L11.613 10.6312V11.9472L9.92531 10.5421C9.76088 10.4053 9.51668 10.4276 9.37984 10.592C9.24299 10.7565 9.26549 11.0007 9.42992 11.1375L11.613 12.9537V17.3343C10.2969 16.0996 7.35499 12.9348 7.35499 9.29072C7.35499 5.22855 11.0165 1.75439 12.0001 0.894781C12.9837 1.75439 16.6451 5.22855 16.6451 9.29072C16.6451 12.9348 13.7032 16.0996 12.3871 17.3343Z" fill="#55AB60"/>
<path d="M9.29038 20.5163H8.90329V17.6738C8.90461 17.1603 8.70049 16.6675 8.33627 16.3056L5.07776 13.0454C4.62471 12.5942 3.89192 12.5942 3.43887 13.0454L3.09695 13.3884V9.2907C3.09658 8.86052 2.9174 8.45 2.60232 8.15722C2.28743 7.86426 1.865 7.71551 1.43595 7.74613C0.610929 7.82646 -0.014122 8.52711 0.000242656 9.3561V14.8855C5.36475e-05 15.3671 0.179423 15.8313 0.503572 16.1874L3.87113 19.8918V20.5163H3.48404C3.27028 20.5163 3.09695 20.6896 3.09695 20.9034V23.613C3.09695 23.8268 3.27028 24.0001 3.48404 24.0001H9.29038C9.50415 24.0001 9.67747 23.8268 9.67747 23.613V20.9034C9.67747 20.6896 9.50415 20.5163 9.29038 20.5163ZM1.07646 15.6663C0.881966 15.4529 0.774232 15.1743 0.774421 14.8855V9.3561C0.764025 8.93461 1.07324 8.57304 1.49133 8.51842C1.71587 8.50235 1.93644 8.58457 2.09559 8.74372C2.2415 8.88831 2.32334 9.08525 2.32278 9.2907V14.0019C2.32183 14.3102 2.44431 14.606 2.66299 14.8234L4.75872 16.9191C4.91068 17.0657 5.15204 17.0637 5.30136 16.9144C5.45068 16.765 5.45275 16.5235 5.30608 16.3717L3.52941 14.5948C3.45702 14.5228 3.41638 14.4249 3.41638 14.3229C3.41638 14.2206 3.45702 14.1227 3.52941 14.0507L3.98624 13.5942C4.13688 13.4453 4.37957 13.4453 4.53039 13.5942L7.7889 16.8531C8.00607 17.0712 8.12836 17.3661 8.12911 17.6738V20.5163H4.64531V19.5922L1.07646 15.6663ZM8.90329 23.2259H3.87113V21.2905H8.90329V23.2259Z" fill="#55AB60"/>
<path d="M22.5648 7.74613C22.1359 7.71551 21.7133 7.86426 21.3984 8.15722C21.0835 8.45 20.9043 8.86052 20.9038 9.2907V13.3884L20.562 13.0465C20.109 12.5953 19.3762 12.5953 18.9231 13.0465L15.6646 16.3056C15.3004 16.6675 15.0963 17.1603 15.0974 17.6738V20.5163H14.7103C14.4966 20.5163 14.3232 20.6896 14.3232 20.9034V23.613C14.3232 23.8268 14.4966 24.0001 14.7103 24.0001H20.5167C20.7304 24.0001 20.9038 23.8268 20.9038 23.613V20.9034C20.9038 20.6896 20.7304 20.5163 20.5167 20.5163H20.1296V19.8918L23.4973 16.1874C23.8215 15.8313 24.0008 15.3671 24.0005 14.8855V9.3561C24.0148 8.52711 23.39 7.82646 22.5648 7.74613ZM20.1296 23.2259H15.0974V21.2905H20.1296V23.2259ZM23.2263 14.8855C23.2267 15.1743 23.1189 15.4529 22.9244 15.6663L19.3554 19.5922V20.5163H15.8716V17.6738C15.8724 17.3661 15.9946 17.0709 16.2118 16.8527L19.4716 13.5942C19.6223 13.4453 19.865 13.4453 20.0158 13.5942L20.4726 14.0511C20.6218 14.2009 20.6218 14.4431 20.4726 14.593L18.695 16.3706C18.5945 16.4677 18.554 16.6116 18.5895 16.7469C18.6249 16.8822 18.7307 16.9881 18.8661 17.0234C19.0014 17.0588 19.1452 17.0185 19.2424 16.9178L21.3381 14.8222C21.5562 14.6049 21.6785 14.3096 21.6779 14.0019V9.2907C21.6776 9.08525 21.7594 8.88831 21.9051 8.74372C22.0645 8.58457 22.2848 8.50254 22.5094 8.51842C22.9275 8.57304 23.2369 8.93461 23.2263 9.3561V14.8855Z" fill="#55AB60"/>
<path d="M11.726 23.3383C11.6552 23.4124 11.6151 23.5104 11.6138 23.6131C11.6145 23.639 11.617 23.6649 11.6215 23.6904C11.6259 23.7148 11.6336 23.7382 11.6448 23.7601C11.6533 23.7847 11.665 23.8081 11.6795 23.8299C11.6939 23.8501 11.7094 23.8694 11.726 23.8879C11.8788 24.0376 12.1232 24.0376 12.2757 23.8879L12.3222 23.8299C12.3367 23.8081 12.3485 23.7847 12.357 23.7601C12.3683 23.7382 12.3761 23.7148 12.3798 23.6904C12.3848 23.6649 12.3874 23.639 12.388 23.6131C12.3889 23.4558 12.2946 23.3135 12.1494 23.2532C12.0041 23.1929 11.8368 23.2266 11.726 23.3383Z" fill="#55AB60"/>
<path d="M4.64515 22.4517H6.19354C6.40731 22.4517 6.58064 22.2784 6.58064 22.0646C6.58064 21.8508 6.40731 21.6775 6.19354 21.6775H4.64515C4.43138 21.6775 4.25806 21.8508 4.25806 22.0646C4.25806 22.2784 4.43138 22.4517 4.64515 22.4517Z" fill="#55AB60"/>
<path d="M7.20791 22.4208C7.25441 22.4407 7.3045 22.4511 7.35497 22.4518C7.51222 22.4526 7.65455 22.3582 7.71484 22.2131C7.77514 22.0679 7.74149 21.9005 7.62979 21.7899C7.51846 21.6799 7.35213 21.6479 7.20791 21.7084C7.16047 21.7271 7.11719 21.7547 7.08014 21.7899C7.00926 21.864 6.96919 21.9621 6.96787 22.0647C6.96428 22.2222 7.06049 22.3651 7.20791 22.4208Z" fill="#55AB60"/>
<path d="M15.8635 9.9874C15.8597 9.96321 15.8519 9.93958 15.8406 9.91765C15.8321 9.89308 15.8204 9.86964 15.8058 9.8481L15.7593 9.79007C15.6042 9.6468 15.3649 9.6468 15.2097 9.79007C15.1931 9.8084 15.1776 9.82768 15.1632 9.8481C15.1486 9.86964 15.1369 9.89308 15.1284 9.91765C15.1173 9.93958 15.1095 9.96321 15.1052 9.9874C15.1008 10.0131 15.0984 10.0388 15.0974 10.0649C15.0987 10.1673 15.1388 10.2656 15.2097 10.3397C15.2834 10.4112 15.3819 10.4512 15.4845 10.452C15.5875 10.4529 15.6866 10.4125 15.7595 10.3397C15.8323 10.2669 15.8727 10.1677 15.8716 10.0649C15.8708 10.0388 15.8682 10.0129 15.8635 9.9874Z" fill="#55AB60"/>
</g>
<defs>
<clipPath id="clip0_1_833">
<rect width="24" height="24" fill="white"/>
</clipPath>
</defs>
</svg>
