<svg width="16" height="18" viewBox="0 0 16 18" fill="none" xmlns="http://www.w3.org/2000/svg">
<path d="M7.9855 18L1.86135 11.6042C1.77626 11.5082 1.69204 11.4115 1.60872 11.3143C0.562608 10.094 -0.00252718 8.60348 8.49575e-06 7.07141C8.49575e-06 5.19596 0.841335 3.39732 2.3389 2.07117C3.83647 0.745022 5.86762 0 7.9855 0C10.1034 0 12.1345 0.745022 13.6321 2.07117C15.1297 3.39732 15.971 5.19596 15.971 7.07141C15.9735 8.60278 15.4086 10.0926 14.363 11.3123L14.3623 11.3143C14.3623 11.3143 14.1445 11.5675 14.1118 11.6016L7.9855 18ZM2.76734 10.5396C2.7688 10.5396 2.93722 10.7376 2.97569 10.78L7.9855 16.0122L13.0018 10.773C13.0338 10.7376 13.2037 10.5383 13.2044 10.5377C14.0589 9.54069 14.5208 8.32307 14.5191 7.07141C14.5191 5.53695 13.8307 4.06533 12.6054 2.9803C11.3802 1.89527 9.71831 1.28571 7.9855 1.28571C6.25269 1.28571 4.59084 1.89527 3.36556 2.9803C2.14027 4.06533 1.45192 5.53695 1.45192 7.07141C1.45039 8.32385 1.91273 9.54217 2.76807 10.5396H2.76734Z" fill="#55AB60"/>
<path d="M11.6163 10.2857H10.1644V5.14287H5.80868V10.2857H4.35677V5.14287C4.35715 4.80198 4.51024 4.47516 4.78245 4.23411C5.05465 3.99307 5.42372 3.8575 5.80868 3.85716H10.1644C10.5493 3.8575 10.9184 3.99307 11.1906 4.23411C11.4628 4.47516 11.6159 4.80198 11.6163 5.14287V10.2857Z" fill="#55AB60"/>
<path d="M7.26 8.99988H8.7119V10.2856H7.26V8.99988Z" fill="#55AB60"/>
<path d="M7.26 6.42852H8.7119V7.71423H7.26V6.42852Z" fill="#55AB60"/>
</svg>
