<svg width="12" height="87" viewBox="0 0 12 87" fill="none" xmlns="http://www.w3.org/2000/svg">
<path d="M7.98995 5.44024L10.6163 2.87247C10.9318 2.55718 11.1074 2.13294 11.1049 1.69185C11.1024 1.25076 10.9221 0.828418 10.6031 0.516515C10.2841 0.204612 9.85213 0.0283224 9.40098 0.0259121C8.94982 0.0235019 8.5159 0.195165 8.19342 0.503641L5.56709 3.0714L2.94075 0.503641C2.7823 0.345301 2.5933 0.219262 2.38469 0.132815C2.17608 0.0463687 1.95201 0.00123545 1.72544 2.5011e-05C1.49887 -0.00118543 1.2743 0.0415512 1.06474 0.125764C0.855177 0.209976 0.664781 0.333989 0.504569 0.490628C0.344358 0.647266 0.217516 0.833416 0.131383 1.0383C0.0452491 1.24319 0.00153762 1.46275 0.00277567 1.68427C0.00401373 1.90579 0.0501765 2.12486 0.138595 2.32882C0.227013 2.53277 0.355931 2.71755 0.517884 2.87247L3.14422 5.44024L0.517884 8.00799C0.202371 8.32328 0.0267881 8.74753 0.0292533 9.18862C0.0317186 9.62971 0.212033 10.0521 0.531051 10.364C0.850069 10.6759 1.28204 10.8522 1.73319 10.8546C2.18435 10.857 2.61826 10.6853 2.94075 10.3768L5.56709 7.80907L8.19342 10.3768C8.5159 10.6853 8.94982 10.857 9.40098 10.8546C9.85213 10.8522 10.2841 10.6759 10.6031 10.364C10.9221 10.0521 11.1024 9.62971 11.1049 9.18862C11.1074 8.74753 10.9318 8.32328 10.6163 8.00799L7.98995 5.44024Z" fill="#BCB14C"/>
<path d="M7.9872 81.5856L10.6135 79.0178C10.929 78.7025 11.1046 78.2783 11.1022 77.8372C11.0997 77.3961 10.9194 76.9737 10.6004 76.6618C10.2813 76.3499 9.84938 76.1736 9.39823 76.1712C8.94707 76.1688 8.51315 76.3405 8.19067 76.649L5.56434 79.2167L2.938 76.649C2.77955 76.4906 2.59055 76.3646 2.38194 76.2781C2.17333 76.1917 1.94926 76.1466 1.72269 76.1453C1.49612 76.1441 1.27155 76.1869 1.06199 76.2711C0.852427 76.3553 0.66203 76.4793 0.501819 76.6359C0.341608 76.7926 0.214766 76.9787 0.128632 77.1836C0.042499 77.3885 -0.00121247 77.6081 2.55816e-05 77.8296C0.00126363 78.0511 0.0474264 78.2702 0.135845 78.4741C0.224263 78.6781 0.353181 78.8629 0.515134 79.0178L3.14147 81.5856L0.515134 84.1533C0.199621 84.4686 0.024038 84.8928 0.0265032 85.3339C0.0289685 85.775 0.209283 86.1974 0.528301 86.5093C0.847319 86.8212 1.27929 86.9975 1.73044 86.9999C2.1816 87.0023 2.61551 86.8306 2.938 86.5221L5.56434 83.9544L8.19067 86.5221C8.51315 86.8306 8.94707 87.0023 9.39823 86.9999C9.84938 86.9975 10.2813 86.8212 10.6004 86.5093C10.9194 86.1974 11.0997 85.775 11.1022 85.3339C11.1046 84.8928 10.929 84.4686 10.6135 84.1533L7.9872 81.5856Z" fill="#BCB14C"/>
</svg>
