<svg width="24" height="26" viewBox="0 0 24 26" fill="none" xmlns="http://www.w3.org/2000/svg">
<path d="M3.67647 5.70982C16.5623 3.95171 19.7379 4.16737 21.7392 6.45777C23.7405 8.74817 23.273 16.306 20.9323 18.4084C18.5916 20.5108 8.43395 20.7107 5.21425 18.4084C1.81033 15.9746 3.78662 8.48698 3.67549 3.9507C3.74257 1.41296 1.0014 1.0014 1.0014 1.0014" stroke="white" stroke-width="2" stroke-linecap="round" stroke-linejoin="round"/>
<path d="M14.9214 11.1772H18.3173H14.9214Z" fill="#60C370"/>
<path fill-rule="evenodd" clip-rule="evenodd" d="M5.70285 23.4296C5.83472 23.4298 5.9636 23.4686 6.07314 23.5412C6.18268 23.6137 6.26795 23.7168 6.31824 23.8372C6.36852 23.9577 6.38156 24.0902 6.35563 24.218C6.32971 24.3458 6.26601 24.4631 6.17262 24.5551C6.07923 24.6471 5.96036 24.7097 5.83098 24.735C5.7016 24.7602 5.56753 24.7469 5.44577 24.6969C5.32402 24.6468 5.22001 24.5622 5.14691 24.4537C5.07381 24.3453 5.03489 24.2178 5.03509 24.0875C5.03522 24.001 5.0526 23.9153 5.08623 23.8354C5.11986 23.7555 5.1691 23.6829 5.23111 23.6218C5.29312 23.5608 5.36666 23.5123 5.44761 23.4793C5.52855 23.4463 5.61528 23.4294 5.70285 23.4296Z" fill="#60C370"/>
<path fill-rule="evenodd" clip-rule="evenodd" d="M19.4887 23.4296C19.6206 23.4296 19.7496 23.4682 19.8593 23.5407C19.9689 23.6131 20.0543 23.7161 20.1048 23.8366C20.1552 23.957 20.1684 24.0896 20.1426 24.2174C20.1168 24.3453 20.0532 24.4626 19.9598 24.5548C19.8665 24.6469 19.7475 24.7095 19.6181 24.7349C19.4887 24.7602 19.3547 24.747 19.2329 24.697C19.111 24.6469 19.007 24.5623 18.9338 24.4539C18.8607 24.3454 18.8217 24.2179 18.8219 24.0875C18.8222 23.9129 18.8926 23.7456 19.0176 23.6222C19.1426 23.4989 19.312 23.4296 19.4887 23.4296Z" fill="#60C370"/>
<path d="M14.9214 11.1772H18.3173M5.70285 23.4296C5.83472 23.4298 5.9636 23.4686 6.07314 23.5412C6.18268 23.6137 6.26795 23.7168 6.31824 23.8372C6.36852 23.9577 6.38156 24.0902 6.35563 24.218C6.32971 24.3458 6.26601 24.4631 6.17262 24.5551C6.07923 24.6471 5.96036 24.7097 5.83098 24.735C5.7016 24.7602 5.56753 24.7469 5.44577 24.6969C5.32402 24.6468 5.22001 24.5622 5.14691 24.4537C5.07381 24.3453 5.03489 24.2178 5.03509 24.0875C5.03522 24.001 5.0526 23.9153 5.08623 23.8354C5.11986 23.7555 5.1691 23.6829 5.23111 23.6218C5.29312 23.5608 5.36666 23.5123 5.44761 23.4793C5.52855 23.4463 5.61528 23.4294 5.70285 23.4296ZM19.4887 23.4296C19.6206 23.4296 19.7496 23.4682 19.8593 23.5407C19.9689 23.6131 20.0543 23.7161 20.1048 23.8366C20.1552 23.957 20.1684 24.0896 20.1426 24.2174C20.1168 24.3453 20.0532 24.4626 19.9598 24.5548C19.8665 24.6469 19.7475 24.7095 19.6181 24.7349C19.4887 24.7602 19.3547 24.747 19.2329 24.697C19.111 24.6469 19.007 24.5623 18.9338 24.4539C18.8607 24.3454 18.8217 24.2179 18.8219 24.0875C18.8222 23.9129 18.8926 23.7456 19.0176 23.6222C19.1426 23.4989 19.312 23.4296 19.4887 23.4296Z" stroke="white" stroke-width="2" stroke-linecap="round" stroke-linejoin="round"/>
</svg>
