<svg width="39" height="5" viewBox="0 0 39 5" fill="none" xmlns="http://www.w3.org/2000/svg">
<path d="M12.5 0H2.5C1.11929 0 0 1.11929 0 2.5C0 3.88071 1.11929 5 2.5 5H12.5C13.8807 5 15 3.88071 15 2.5C15 1.11929 13.8807 0 12.5 0Z" fill="#55AB60"/>
<path d="M24.5 0H19.5C18.1193 0 17 1.11929 17 2.5C17 3.88071 18.1193 5 19.5 5H24.5C25.8807 5 27 3.88071 27 2.5C27 1.11929 25.8807 0 24.5 0Z" fill="#CFCFCF"/>
<path d="M36.5 0H31.5C30.1193 0 29 1.11929 29 2.5C29 3.88071 30.1193 5 31.5 5H36.5C37.8807 5 39 3.88071 39 2.5C39 1.11929 37.8807 0 36.5 0Z" fill="#CFCFCF"/>
</svg>
