<svg width="15" height="18" viewBox="0 0 15 18" fill="none" xmlns="http://www.w3.org/2000/svg">
<path d="M13.2972 2.4193H1.66861C1.17458 2.4193 0.774096 2.78759 0.774096 3.24189V16.4032C0.774096 16.8575 1.17458 17.2258 1.66861 17.2258H13.2972C13.7913 17.2258 14.1918 16.8575 14.1918 16.4032V3.24189C14.1918 2.78759 13.7913 2.4193 13.2972 2.4193Z" stroke="#55AB60" stroke-width="1.5" stroke-linejoin="round"/>
<path d="M4.80004 0.774096V3.24185V0.774096Z" fill="white"/>
<path d="M4.80004 0.774096V3.24185" stroke="#55AB60" stroke-width="1.5" stroke-linecap="round" stroke-linejoin="round"/>
<path d="M10.1661 0.774096V3.24185V0.774096Z" fill="white"/>
<path d="M10.1661 0.774096V3.24185" stroke="#55AB60" stroke-width="1.5" stroke-linecap="round" stroke-linejoin="round"/>
<path d="M3.90437 6.94343H11.0605H3.90437Z" fill="white"/>
<path d="M3.90437 6.94343H11.0605" stroke="#55AB60" stroke-width="1.5" stroke-linecap="round" stroke-linejoin="round"/>
<path d="M3.90437 10.2338H9.27144H3.90437Z" fill="white"/>
<path d="M3.90437 10.2338H9.27144" stroke="#55AB60" stroke-width="1.5" stroke-linecap="round" stroke-linejoin="round"/>
<path d="M3.90437 13.5243H7.48242H3.90437Z" fill="white"/>
<path d="M3.90437 13.5243H7.48242" stroke="#55AB60" stroke-width="1.5" stroke-linecap="round" stroke-linejoin="round"/>
</svg>
