<svg width="53" height="101" viewBox="0 0 53 101" fill="none" xmlns="http://www.w3.org/2000/svg">
<path d="M17.91 99.3059V96.2039L12.2711 96.164L12.2232 100.855L12.5727 100.88C14.1286 100.978 20.4886 101.124 21.5333 100.804C22.6957 100.449 17.91 99.3059 17.91 99.3059Z" fill="#55AB60"/>
<path d="M21.6659 100.515C21.6659 100.566 19.5545 100.61 16.9538 100.61C14.3532 100.61 12.2418 100.566 12.2418 100.515C12.2418 100.464 14.3532 100.42 16.9538 100.42C19.5545 100.42 21.6659 100.464 21.6659 100.515Z" fill="#263238"/>
<path d="M18.0097 99.9408C17.9619 99.9154 18.0097 99.7521 18.1237 99.5779C18.2377 99.4037 18.3922 99.3312 18.429 99.3674C18.4658 99.4037 18.3886 99.5416 18.2782 99.6904C18.1679 99.8392 18.0575 99.9662 18.0097 99.9408Z" fill="#263238"/>
<path d="M18.3701 100.144C18.3186 100.144 18.3444 99.9408 18.4547 99.7485C18.5651 99.5562 18.7122 99.44 18.7527 99.4691C18.7931 99.4981 18.7269 99.6614 18.6239 99.832C18.5209 100.003 18.4179 100.162 18.3701 100.144Z" fill="#263238"/>
<path d="M13.9413 100.5C13.9192 100.5 13.8346 100.434 13.7132 100.297C13.565 100.119 13.4 99.9565 13.2203 99.8103C13.0436 99.671 12.8331 99.5797 12.6097 99.5454C12.4368 99.5236 12.3264 99.5454 12.3154 99.5236C12.3044 99.5018 12.411 99.4256 12.6134 99.4111C12.8803 99.4056 13.1408 99.4929 13.349 99.6579C13.5441 99.8148 13.7087 100.005 13.8346 100.22C13.9192 100.38 13.9633 100.485 13.9413 100.5Z" fill="#263238"/>
<path d="M18.0282 99.3567C18.054 99.4004 17.9583 99.5097 17.7965 99.568C17.6346 99.6262 17.4912 99.6044 17.4838 99.568C17.4765 99.5316 17.5905 99.4551 17.7303 99.4041C17.87 99.3531 17.9988 99.313 18.0282 99.3567Z" fill="#263238"/>
<path d="M17.9399 99.0565C17.9399 99.1114 17.7928 99.1554 17.6015 99.1591C17.4103 99.1627 17.2594 99.1188 17.2631 99.0675C17.2668 99.0162 17.4176 98.9685 17.6015 98.9649C17.7854 98.9612 17.9326 99.0052 17.9399 99.0565Z" fill="#263238"/>
<path d="M31.7964 99.3059V96.2039L26.1574 96.164L26.1096 100.808L26.4591 100.833C28.015 100.931 34.3787 101.124 35.4197 100.804C36.582 100.449 31.7964 99.3059 31.7964 99.3059Z" fill="#55AB60"/>
<path d="M35.552 100.522C35.552 100.574 33.4443 100.617 30.84 100.617C28.2357 100.617 26.1316 100.574 26.1316 100.522C26.1316 100.471 28.2393 100.427 30.84 100.427C33.4406 100.427 35.552 100.471 35.552 100.522Z" fill="#263238"/>
<path d="M31.8955 99.9408C31.8513 99.9154 31.8955 99.7521 32.0095 99.5779C32.1235 99.4037 32.278 99.3312 32.3148 99.3674C32.3516 99.4037 32.2744 99.5416 32.164 99.6904C32.0537 99.8392 31.9433 99.9662 31.8955 99.9408Z" fill="#263238"/>
<path d="M32.2562 100.144C32.2084 100.144 32.2305 99.9408 32.3445 99.7485C32.4585 99.5562 32.602 99.44 32.6424 99.4691C32.6829 99.4981 32.613 99.6614 32.51 99.832C32.407 100.003 32.3077 100.162 32.2562 100.144Z" fill="#263238"/>
<path d="M27.8272 100.5C27.8051 100.5 27.7242 100.434 27.5991 100.297C27.4509 100.119 27.2859 99.9565 27.1062 99.8103C26.9295 99.671 26.719 99.5797 26.4956 99.5454C26.3264 99.5236 26.2123 99.5454 26.2013 99.5236C26.1903 99.5018 26.2969 99.4256 26.4993 99.4111C26.7663 99.4056 27.0267 99.4929 27.2349 99.6579C27.431 99.8137 27.5958 100.005 27.7205 100.22C27.8051 100.38 27.8492 100.485 27.8272 100.5Z" fill="#263238"/>
<path d="M31.9136 99.3567C31.9394 99.4004 31.8437 99.5097 31.6819 99.568C31.52 99.6262 31.3766 99.6044 31.3692 99.568C31.3619 99.5316 31.4759 99.4551 31.6157 99.4041C31.7555 99.3531 31.8842 99.313 31.9136 99.3567Z" fill="#263238"/>
<path d="M31.8329 99.0565C31.8329 99.1114 31.6858 99.1554 31.4945 99.1591C31.3032 99.1627 31.1561 99.1188 31.1598 99.0675C31.1635 99.0162 31.3106 98.9685 31.4945 98.9649C31.6784 98.9612 31.8329 99.0052 31.8329 99.0565Z" fill="#263238"/>
<path d="M52.5718 7.18892C52.4247 7.04017 52.0605 7.11273 52.0605 7.11273C52.097 6.90384 52.097 6.69033 52.0605 6.48144C51.9943 6.27827 51.5308 6.31818 51.5308 6.31818C51.5094 6.14709 51.5094 5.97407 51.5308 5.80299C51.5345 5.76507 51.5262 5.72695 51.5072 5.69383C51.4881 5.66071 51.4591 5.63422 51.4241 5.61796C51.2049 5.52977 50.9693 5.48775 50.7326 5.49461C50.4494 5.29506 51.597 3.70959 52.0237 3.20166C52.4504 2.69373 52.3732 2.29827 51.9943 2.29827C51.7331 2.29827 50.3942 3.82206 49.9822 4.33362C49.5702 4.84518 48.4777 6.26739 48.4409 5.1318C48.4042 3.99621 47.9407 3.13998 47.6501 2.99486C47.3595 2.84974 47.0505 3.19077 47.2087 3.50642C47.3476 3.86502 47.4343 4.24125 47.4662 4.62386C47.5061 4.92865 47.4924 5.23795 47.4257 5.53814C47.3038 6.0967 47.1377 6.645 46.9291 7.17803H46.8997C46.8997 7.17803 38.8734 14.7716 38.2922 15.3122C37.7736 15.7983 27.3416 14.7353 25.2486 14.5176C24.5374 14.415 23.8192 14.3665 23.1004 14.3725C22.1918 14.4124 22.03 14.5394 21.1251 14.5503C18.8399 14.5753 16.5599 14.773 14.3053 15.1417C13.2844 15.3129 12.3308 15.7573 11.5485 16.4265C10.7662 17.0957 10.1853 17.964 9.86916 18.9366C7.76143 25.4309 2.98686 40.8031 2.14451 49.4379C1.50798 50.5764 0.933337 51.7475 0.423014 52.9462C-0.16921 54.5353 -0.0257521 54.5898 0.172882 54.626C0.709929 54.724 1.32054 51.8723 1.54861 52.5617C1.77667 53.251 0.389909 55.9612 0.952705 56.041C1.68839 56.1426 2.27325 53.1385 2.34314 52.8991C2.41303 52.6596 2.77719 52.7358 2.71098 52.9608C2.60431 53.28 1.57068 56.665 2.29165 56.7739C2.68891 56.8319 2.73305 56.1172 2.73305 56.1172C2.73305 56.1172 3.46874 52.8773 3.80347 52.9426C4.13821 53.0079 3.7814 54.9199 3.61219 55.5585C3.44299 56.197 3.6784 56.5199 4.02417 56.3639C4.25959 56.2551 4.82239 54.314 4.97688 53.6827C5.13138 53.0515 5.51761 51.3027 6.03626 52.315C6.55492 53.3272 7.3421 53.9149 7.6658 53.9294C7.73874 53.9212 7.80749 53.8915 7.86321 53.8444C7.91893 53.7972 7.95907 53.7347 7.97846 53.6648C7.99784 53.595 7.99559 53.521 7.97199 53.4524C7.9484 53.3838 7.90453 53.3238 7.84604 53.28C7.56762 53.0119 7.32866 52.7066 7.13611 52.373C6.96451 52.1132 6.84005 51.8259 6.76827 51.524C6.62004 50.9222 6.53377 50.3071 6.51078 49.6882L6.45192 49.3254C7.27589 45.3019 9.64846 33.4925 13.0731 25.9497L14.4782 28.8014L15.0888 30.9129L11.3442 40.0303L27.3159 39.8235L24.9322 30.7751L27.8272 21.342C30.9575 21.411 38.9948 21.5271 40.3337 20.9284C42.0184 20.2028 50.7326 9.34762 50.7326 9.34762C51.3006 8.91228 51.8446 8.44722 52.3621 7.95444C52.3621 7.95444 52.8918 7.51545 52.5718 7.18892Z" fill="#FFBE9D"/>
<path d="M10.6415 33.293C11.105 31.7329 13.485 24.0196 13.485 24.0196C13.485 24.0196 14.6547 30.3071 14.3457 31.0653C14.0615 31.7145 13.7257 32.3405 13.3415 32.9374C10.6415 36.99 10.9947 39.0181 10.9947 39.0181L27.3084 38.5283C27.3452 36.2789 25.9952 31.0472 25.7157 30.2127C25.4361 29.3783 26.3667 26.6463 26.3667 26.6463C26.3667 26.6463 28.2059 24.7996 28.1397 23.8491C28.1048 22.9952 27.9977 22.1457 27.8197 21.3094L37.7514 21.6722L37.4387 15.0329L23.1739 13.6252C22.6773 15.0075 18.186 14.329 18.186 14.329C13.3378 14.4886 13.0362 15.3666 11.0204 16.9122C9.00465 18.4578 5.66833 31.722 5.66833 31.722L10.6415 33.293Z" fill="#55AB60"/>
<path d="M20.2865 31.7223C20.0038 31.7721 19.7158 31.7867 19.4294 31.7658C18.896 31.7658 18.164 31.7295 17.3585 31.6497C16.5529 31.5698 15.8246 31.4574 15.3059 31.3557C15.0199 31.3194 14.7395 31.2487 14.4709 31.1453C14.7585 31.1454 15.0455 31.1721 15.328 31.2251C15.8503 31.2904 16.575 31.3812 17.3769 31.461C18.1787 31.5408 18.9071 31.5952 19.4331 31.6315C19.7198 31.6351 20.0056 31.6655 20.2865 31.7223Z" fill="#263238"/>
<path d="M21.4045 30.3543C21.1217 30.4909 20.8227 30.5921 20.5143 30.6555C19.0468 31.0359 17.5327 31.213 16.0157 31.1816C15.7017 31.1917 15.3878 31.1624 15.0813 31.0945C15.3912 31.0559 15.7035 31.0402 16.0157 31.0474C16.5932 31.0292 17.3877 30.9893 18.2632 30.8877C19.1386 30.7861 19.9184 30.6409 20.4702 30.5248C20.7767 30.4441 21.0891 30.3871 21.4045 30.3543Z" fill="#263238"/>
<path d="M26.8929 24.2519C26.8855 24.5286 26.8473 24.8035 26.7789 25.0719C26.6833 25.5762 26.5361 26.2655 26.3485 27.0202C26.1609 27.7748 25.9807 28.4714 25.8189 28.9431C25.7538 29.213 25.6575 29.4748 25.5319 29.7231C25.5524 29.4473 25.6043 29.1747 25.6864 28.9104C25.8262 28.3444 25.9844 27.6914 26.1609 26.9766C26.3375 26.2619 26.5067 25.6088 26.6465 25.0429C26.6963 24.7705 26.779 24.5049 26.8929 24.2519Z" fill="#263238"/>
<path d="M10.8148 32.3682C9.96383 32.2386 9.12398 32.0457 8.30246 31.7912C7.463 31.5976 6.63924 31.3429 5.83792 31.0292C6.68849 31.161 7.52818 31.3538 8.35028 31.6062C9.18992 31.7991 10.0137 32.0538 10.8148 32.3682Z" fill="#263238"/>
<path d="M27.9968 21.2297C27.8581 21.2533 27.7163 21.2533 27.5775 21.2297C27.1933 21.1909 26.816 21.1018 26.4556 20.9649C25.8538 20.7419 25.3061 20.3971 24.8474 19.9529C24.3888 19.5086 24.0294 18.9747 23.7924 18.3853C23.5305 17.737 23.4186 17.0391 23.4651 16.3427C23.4815 15.7683 23.6556 15.209 23.969 14.7246C24.1894 14.3982 24.5186 14.1582 24.8996 14.0461C25.0014 14.0184 25.1067 14.005 25.2123 14.0062C25.2859 14.0062 25.3226 14.0062 25.3226 14.0062C25.3226 14.0062 25.1682 14.0062 24.9217 14.1042C24.5722 14.2315 24.2757 14.4703 24.0793 14.7826C23.5791 15.559 23.4393 16.9776 23.9727 18.3019C24.2209 18.9263 24.6095 19.487 25.1093 19.9418C25.5188 20.3139 25.9904 20.6134 26.5034 20.827C26.9848 21.0147 27.4856 21.1497 27.9968 21.2297Z" fill="#263238"/>
<path d="M36.5709 21.5416C36.4788 20.429 36.4493 19.3123 36.4825 18.1965C36.4537 17.0817 36.4881 15.9661 36.5856 14.8551C36.6778 15.9664 36.7074 17.0819 36.674 18.1965C36.705 19.3126 36.6706 20.4295 36.5709 21.5416Z" fill="#263238"/>
<path d="M23.0784 14.0317C23.1189 13.2226 23.2035 12.3083 23.2035 12.3083C23.2035 12.3083 25.234 12.087 25.3554 10.019C25.4768 7.95101 25.3554 3.18009 25.3554 3.18009L21.677 1.32251L17.5939 4.48982L18.2229 14.8298L21.9676 15.0657C22.2538 15.0735 22.5315 14.969 22.7397 14.7752C22.948 14.5813 23.0698 14.3139 23.0784 14.0317Z" fill="#FFBE9D"/>
<path d="M23.4425 8.38289C23.4425 8.38289 23.4425 8.42281 23.4094 8.46998C23.382 8.5042 23.3466 8.53133 23.3063 8.54903C23.2659 8.56673 23.2218 8.57447 23.1777 8.57158C22.9423 8.57158 22.7142 8.30306 22.6333 7.99099C22.5948 7.83972 22.5948 7.68142 22.6333 7.53015C22.6408 7.46412 22.665 7.40099 22.7035 7.3465C22.742 7.292 22.7938 7.24786 22.854 7.21808C22.9034 7.19792 22.959 7.19792 23.0085 7.21808C23.0451 7.23604 23.0749 7.26535 23.0931 7.30154C23.1188 7.36322 23.0931 7.40314 23.0931 7.39951C23.0931 7.39588 23.0931 7.36323 23.0563 7.32694C23.0371 7.30095 23.0088 7.28287 22.9769 7.27618C22.945 7.26948 22.9117 7.27463 22.8834 7.29065C22.8383 7.31757 22.8008 7.3553 22.7744 7.40034C22.7481 7.44539 22.7337 7.49628 22.7326 7.54829C22.7016 7.68326 22.7016 7.82336 22.7326 7.95833C22.8062 8.24137 23.0048 8.46998 23.1813 8.49175C23.2159 8.49637 23.251 8.49392 23.2846 8.48456C23.3181 8.47519 23.3493 8.45912 23.3763 8.43732C23.4204 8.40829 23.4352 8.37926 23.4425 8.38289Z" fill="#EB996E"/>
<path d="M26.6168 2.06267C26.3335 1.11211 25.3072 0.640461 24.3729 0.379239C22.9494 -0.0198491 21.4118 -0.193998 20.0214 0.310305C18.6309 0.814608 16.9609 1.69986 16.9609 3.21277C16.1407 3.14746 15.6698 3.85494 15.3461 4.73293C15.1392 5.26784 15.0151 5.83047 14.9783 6.40185C14.8753 8.38278 14.3125 11.1184 13.0103 12.5696C12.2746 13.3786 11.2557 13.9374 10.8364 14.946C10.4685 15.8203 10.6598 16.858 10.3177 17.7432C10.0124 18.5233 9.33927 19.0784 8.84636 19.7568C8.3442 20.5265 8.04866 21.4094 7.98754 22.3227C7.92641 23.2359 8.10169 24.1495 8.49691 24.9776C8.89498 25.7845 9.45542 26.5029 10.1441 27.0892C10.8328 27.6756 11.6353 28.1175 12.5027 28.388C14.2209 28.9036 16.0531 28.9212 17.7812 28.4388C19.0781 28.1329 20.288 27.5413 21.3198 26.7082C22.3757 25.8578 23.1008 24.6734 23.3724 23.3559C23.6336 21.8756 23.2142 20.3699 22.9016 18.8969C21.9231 14.2421 22.2027 13.999 23.4386 9.678C23.468 9.60181 23.4828 9.522 23.5048 9.44581C23.5269 9.36962 23.5379 9.33334 23.5526 9.27529C23.5878 9.10448 23.6062 8.93074 23.6078 8.75647C23.4273 8.82268 23.2314 8.83669 23.043 8.79684C22.8547 8.75699 22.6819 8.66495 22.5448 8.53153C22.4073 8.38927 22.3115 8.21298 22.2675 8.02135C22.2235 7.82972 22.2328 7.6299 22.2946 7.44311C22.3814 7.23881 22.5107 7.05476 22.6742 6.90289C22.8377 6.75102 23.0317 6.63471 23.2437 6.56149C23.652 6.39459 24.0897 6.30752 24.4906 6.12249C25.3403 5.7234 25.9289 4.89619 26.3298 4.02908C26.6595 3.42811 26.7612 2.73094 26.6168 2.06267Z" fill="#263238"/>
<path d="M23.5893 8.48075C23.6671 8.59403 23.7312 8.7158 23.7806 8.84362C23.891 9.07223 24.0381 9.39518 24.1999 9.76893L24.2294 9.83788H24.1521L23.7843 9.87054C23.5305 9.87054 23.3171 9.91771 23.067 9.91408C23.0452 9.90925 23.025 9.89906 23.0083 9.88447C22.9916 9.86988 22.9789 9.85136 22.9714 9.83062C22.9604 9.79761 22.9604 9.76202 22.9714 9.72902C22.9799 9.68011 22.9909 9.63166 23.0045 9.58387L23.0707 9.32623C23.104 9.15436 23.1557 8.98649 23.2252 8.82548C23.2183 9.00067 23.1924 9.17464 23.1479 9.34438L23.0964 9.60201C23.078 9.6891 23.0449 9.82336 23.0964 9.81248C23.2804 9.81248 23.5415 9.77256 23.7843 9.75805L24.1521 9.72539L24.1043 9.80522C23.9461 9.44235 23.8137 9.10125 23.7365 8.86539C23.6687 8.74493 23.6191 8.61535 23.5893 8.48075Z" fill="#55AB60"/>
<path d="M10.9951 39.0184L27.3088 38.5286L34.4082 65.8625L33.1023 97.2164H24.4764L25.5321 66.5301L19.2237 47.5008L20.1948 98.4318L11.4769 98.5588L10.561 50.6863C10.5206 49.3548 10.0791 46.3544 10.2447 45.0337L10.9951 39.0184Z" fill="#263238"/>
<path d="M21.3939 47.889C21.1269 47.9056 20.8588 47.8897 20.5957 47.8418C20.1028 47.7837 19.4297 47.6821 18.6903 47.537C17.9509 47.3919 17.2888 47.2249 16.8106 47.0907C16.555 47.0352 16.3077 46.9474 16.0749 46.8294C16.0749 46.775 17.2741 47.058 18.7455 47.3519C20.2168 47.6459 21.4013 47.8345 21.3939 47.889Z" fill="#455A64"/>
<path d="M33.0141 95.4973C33.0141 95.5486 31.0608 95.5926 28.6515 95.5926C26.2421 95.5926 24.2852 95.5486 24.2852 95.4973C24.2852 95.446 26.2384 95.402 28.6515 95.402C31.0645 95.402 33.0141 95.4423 33.0141 95.4973Z" fill="#455A64"/>
<path d="M20.1174 97.1082C20.1174 97.1631 18.2194 97.2034 15.8799 97.2034C13.5404 97.2034 11.646 97.1631 11.646 97.1082C11.646 97.0532 13.5441 97.0129 15.8799 97.0129C18.2157 97.0129 20.1174 97.0569 20.1174 97.1082Z" fill="#455A64"/>
<path d="M18.9914 96.9769C18.9399 96.9769 18.7119 85.8496 18.4801 72.1245C18.2484 58.3995 18.1123 47.2649 18.1601 47.2649C18.2079 47.2649 18.4434 58.3886 18.6714 72.1209C18.8995 85.8532 19.0466 96.9769 18.9914 96.9769Z" fill="#455A64"/>
<path d="M31.855 95.4963C31.851 95.4468 31.851 95.3971 31.855 95.3476V94.9122C31.855 94.5204 31.8845 93.958 31.9065 93.2433C31.958 91.7921 32.0316 89.6842 32.1236 87.101C32.3222 81.9056 32.6018 74.7437 32.9071 66.8381C32.9071 66.762 32.9071 66.6894 32.9071 66.6241V66.6495C30.9759 59.0305 29.2287 52.1154 27.9596 47.1123L26.4882 41.1949C26.319 40.5019 26.1903 39.9614 26.0983 39.584C26.0542 39.4063 26.0248 39.2684 25.999 39.1632C25.9847 39.116 25.976 39.0673 25.9733 39.0181C25.9924 39.0638 26.0071 39.1111 26.0174 39.1595C26.0468 39.2611 26.0836 39.399 26.1351 39.5732C26.2344 39.936 26.3779 40.4874 26.5618 41.1768C26.9296 42.5772 27.4483 44.5944 28.0957 47.0796C29.3758 52.0791 31.1414 58.9761 33.0983 66.6059V66.6313C33.0983 66.6967 33.0983 66.7728 33.0983 66.8454C32.771 74.751 32.473 81.9092 32.256 87.1046C32.142 89.6914 32.0463 91.7848 31.9801 93.2433C31.9433 93.9689 31.9139 94.5204 31.8955 94.9122C31.8955 95.0972 31.8734 95.2424 31.8698 95.3476C31.8703 95.3975 31.8654 95.4474 31.855 95.4963Z" fill="#455A64"/>
<path d="M29.0414 65.9857C28.4218 66.1866 27.7835 66.3264 27.1359 66.4029C26.3414 66.5372 25.6646 66.6316 25.3593 66.6461V66.5735C25.4586 66.6025 25.5101 66.6207 25.5101 66.6352C25.5101 66.6497 25.4475 66.6352 25.3446 66.6352H25.1238L25.3446 66.5699C25.6315 66.4864 26.3083 66.3485 27.1028 66.207C27.7401 66.0706 28.3894 65.9965 29.0414 65.9857Z" fill="#455A64"/>
<path d="M28.8903 67.0272C28.3166 67.0531 27.7416 67.0276 27.1725 66.9509C26.5979 66.9393 26.0255 66.8773 25.462 66.7656C26.6116 66.673 27.7688 66.7613 28.8903 67.0272Z" fill="#455A64"/>
<path opacity="0.2" d="M10.9252 39.5954C11.1184 39.8402 11.3617 40.042 11.6393 40.1876C11.9169 40.3333 12.2226 40.4196 12.5363 40.4409C13.1933 40.5177 13.8579 40.5055 14.5116 40.4046C18.7234 39.9438 23.1853 39.5192 27.3088 38.5286C21.9714 38.8225 16.3324 38.7245 10.995 39.0185L10.9399 39.4684" fill="black"/>
<g opacity="0.2">
<path opacity="0.2" d="M16.4244 47.0142L19.4333 58.5297L19.2236 47.5004L16.4244 47.0142Z" fill="black"/>
</g>
</svg>
