<svg width="20" height="20" viewBox="0 0 20 20" fill="none" xmlns="http://www.w3.org/2000/svg">
<path d="M9.76867 4.63417L4.07028 9.30083V15.8333H8.14056V12.5H11.3968V15.8333H15.4671V9.70167C15.4671 9.57669 15.4397 9.45331 15.3868 9.34065C15.334 9.22799 15.2571 9.12894 15.1618 9.05083L9.76867 4.63417ZM9.76867 2.5L16.1785 7.75C16.4644 7.98407 16.6952 8.28091 16.8538 8.61859C17.0125 8.95626 17.095 9.32613 17.0952 9.70083V15.8333C17.0952 16.2754 16.9236 16.6993 16.6183 17.0118C16.313 17.3244 15.8989 17.5 15.4671 17.5H4.07028C3.63848 17.5 3.22436 17.3244 2.91903 17.0118C2.6137 16.6993 2.44217 16.2754 2.44217 15.8333V9.30083C2.4422 9.05103 2.49708 8.80442 2.60276 8.57926C2.70844 8.35409 2.86222 8.15613 3.05271 8L9.76867 2.5Z" fill="black"/>
</svg>
