<svg width="217" height="89" viewBox="0 0 217 89" fill="none" xmlns="http://www.w3.org/2000/svg">
<path d="M216.5 77.2505H0.5V77.3095H216.5V77.2505Z" fill="#EBEBEB" stroke="#D9D9D9"/>
<path d="M17.8972 79.4824H12.8887V79.5414H17.8972V79.4824Z" fill="#EBEBEB" stroke="#D9D9D9"/>
<path d="M101.361 78.8467H81.2949V78.9057H101.361V78.8467Z" fill="#EBEBEB" stroke="#D9D9D9"/>
<path d="M25.4813 81.6599H16.4814V81.7189H25.4813V81.6599Z" fill="#EBEBEB" stroke="#D9D9D9"/>
<path d="M204.669 81.2661H194.469V81.3251H204.669V81.2661Z" fill="#EBEBEB" stroke="#D9D9D9"/>
<path d="M174.323 81.2661H171.496V81.3251H174.323V81.2661Z" fill="#EBEBEB" stroke="#D9D9D9"/>
<path d="M159.505 80.2771H154.074V80.3361H159.505V80.2771Z" fill="#EBEBEB" stroke="#D9D9D9"/>
<path d="M142.356 80.2771H130.917V80.3361H142.356V80.2771Z" fill="#EBEBEB" stroke="#D9D9D9"/>
<path d="M56.4694 66.7959H10.8696C10.5125 66.7954 10.1701 66.6542 9.91769 66.4033C9.66531 66.1524 9.52356 65.8123 9.52356 65.4577V1.82729C9.52646 1.47461 9.66949 1.13733 9.92156 0.88878C10.1736 0.64023 10.5143 0.500511 10.8696 0.5H56.4694C56.6464 0.5 56.8217 0.534615 56.9853 0.601866C57.1488 0.669116 57.2974 0.767684 57.4226 0.891948C57.5478 1.01621 57.6471 1.16373 57.7149 1.32609C57.7826 1.48845 57.8175 1.66246 57.8175 1.8382V65.4567C57.8176 65.6325 57.7828 65.8066 57.7151 65.9691C57.6475 66.1316 57.5482 66.2792 57.423 66.4036C57.2978 66.528 57.1491 66.6266 56.9855 66.6939C56.8219 66.7613 56.6465 66.7959 56.4694 66.7959ZM10.8696 0.546625C10.5281 0.54715 10.2007 0.682202 9.95939 0.92213C9.71806 1.16206 9.58252 1.48725 9.58252 1.8263V65.4567C9.58252 65.7958 9.71806 66.1209 9.95939 66.3609C10.2007 66.6008 10.5281 66.7359 10.8696 66.7364H56.4694C56.8111 66.7356 57.1385 66.6005 57.3801 66.3607C57.6216 66.1209 57.7577 65.7959 57.7585 65.4567V1.82729C57.7577 1.48814 57.6216 1.16311 57.3801 0.923292C57.1385 0.683477 56.8111 0.548402 56.4694 0.547616L10.8696 0.546625Z" fill="#EBEBEB" stroke="#D9D9D9"/>
<path d="M205.474 66.7959H159.872C159.514 66.7951 159.172 66.6539 158.919 66.4031C158.667 66.1523 158.524 65.8124 158.524 65.4577V1.82729C158.527 1.47451 158.671 1.13738 158.923 0.888943C159.175 0.640503 159.516 0.500764 159.872 0.5H205.473C205.828 0.501033 206.169 0.640983 206.42 0.889477C206.672 1.13797 206.815 1.47496 206.817 1.82729V65.4577C206.817 65.8118 206.676 66.1514 206.424 66.4022C206.173 66.653 205.831 66.7946 205.474 66.7959ZM159.872 0.546625C159.53 0.547411 159.203 0.682485 158.961 0.9223C158.719 1.16212 158.583 1.48715 158.583 1.8263V65.4567C158.583 65.7959 158.719 66.1209 158.961 66.3607C159.203 66.6005 159.53 66.7356 159.872 66.7364H205.473C205.815 66.7356 206.142 66.6005 206.384 66.3607C206.626 66.1209 206.762 65.7959 206.763 65.4567V1.82729C206.762 1.48814 206.626 1.16311 206.384 0.923292C206.142 0.683477 205.815 0.548402 205.473 0.547616L159.872 0.546625Z" fill="#EBEBEB" stroke="#D9D9D9"/>
<path d="M13.1622 77.2505H21.1348L21.1348 44.2012H13.1622L13.1622 77.2505Z" fill="#E6E6E6" stroke="#D9D9D9"/>
<path d="M14.4872 77.2506H13.1602V74.2747H15.8783L14.4872 77.2506Z" fill="#F0F0F0" stroke="#D9D9D9"/>
<path d="M124.177 77.2505H132.15V44.2012H124.177V77.2505Z" fill="#E6E6E6" stroke="#D9D9D9"/>
<path d="M13.1626 76.1086H67.1177V44.2012L13.1626 44.2012L13.1626 76.1086Z" fill="#F0F0F0" stroke="#D9D9D9"/>
<path d="M14.1919 54.3662L192.47 54.3662V45.6148L14.1919 45.6148V54.3662Z" fill="#E6E6E6" stroke="#D9D9D9"/>
<path d="M14.1924 46.8083L66.0879 46.8083V45.618L14.1924 45.618V46.8083Z" fill="#E0E0E0" stroke="#D9D9D9"/>
<path d="M120.029 77.2506H121.356V74.2747H118.636L120.029 77.2506Z" fill="#F0F0F0" stroke="#D9D9D9"/>
<path opacity="0.22" d="M14.1919 64.5313L192.47 64.5312V55.7799L14.1919 55.7799V64.5313Z" fill="#E6E6E6" stroke="#D9D9D9"/>
<path d="M14.1924 56.9731L66.0879 56.9731V55.7828L14.1924 55.7828V56.9731Z" fill="#E0E0E0" stroke="#D9D9D9"/>
<path opacity="0.22" d="M14.1919 74.6931L192.47 74.6931V65.9418L14.1919 65.9418V74.6931Z" fill="#E6E6E6" stroke="#D9D9D9"/>
<path d="M14.1924 67.1353H66.0879V65.9449H14.1924V67.1353Z" fill="#E0E0E0" stroke="#D9D9D9"/>
<path d="M182.97 77.2506H201.458L203.098 19.6099H184.611L182.97 77.2506Z" fill="#E6E6E6" stroke="#D9D9D9"/>
<path d="M182.407 77.2506H200.894L202.535 19.6099H184.048L182.407 77.2506Z" fill="#F0F0F0" stroke="#D9D9D9"/>
<path d="M199.785 75.6117L201.332 21.2505H185.155L183.608 75.6117H199.785Z" fill="#FAFAFA" stroke="#D9D9D9"/>
<path d="M48.6483 35.2297L101.968 35.2297V5.71099L48.6483 5.71099L48.6483 35.2297Z" fill="#F0F0F0" stroke="#D9D9D9"/>
<path d="M17.7496 35.2297L186.134 35.2297V5.71099L17.7496 5.71099V35.2297Z" fill="#F5F5F5" stroke="#D9D9D9"/>
<path opacity="0.22" d="M178.616 32.7734V8.16309L48.6768 8.16309V32.7734L178.616 32.7734Z" fill="white" stroke="#D9D9D9"/>
<path d="M20.3114 42.88C21.3263 42.88 22.1491 42.0632 22.1491 41.0557C22.1491 40.0482 21.3263 39.2314 20.3114 39.2314C19.2964 39.2314 18.4736 40.0482 18.4736 41.0557C18.4736 42.0632 19.2964 42.88 20.3114 42.88Z" fill="#F0F0F0" stroke="#D9D9D9"/>
<path d="M42.7821 42.3116C43.0152 41.3311 42.4034 40.3485 41.4156 40.1171C40.4278 39.8857 39.438 40.493 39.2049 41.4735C38.9717 42.4541 39.5835 43.4366 40.5713 43.6681C41.5591 43.8995 42.5489 43.2922 42.7821 42.3116Z" fill="#E6E6E6" stroke="#D9D9D9"/>
<path d="M47.5682 41.0497C47.8013 40.0691 47.1896 39.0866 46.2017 38.8551C45.2139 38.6237 44.2241 39.231 43.991 40.2116C43.7578 41.1921 44.3696 42.1747 45.3574 42.4061C46.3453 42.6376 47.335 42.0303 47.5682 41.0497Z" fill="#F0F0F0" stroke="#D9D9D9"/>
<path d="M28.9646 41.7351C28.9646 41.7351 28.8038 44.2012 22.588 44.2012C16.3723 44.2012 16.2134 41.7351 16.2134 41.7351H28.9646Z" fill="#E6E6E6" stroke="#D9D9D9"/>
<path d="M59.5391 87.8372C84.8275 87.8372 105.328 86.6491 105.328 85.1836C105.328 83.7181 84.8275 82.53 59.5391 82.53C34.2508 82.53 13.7505 83.7181 13.7505 85.1836C13.7505 86.6491 34.2508 87.8372 59.5391 87.8372Z" fill="#F5F5F5"/>
<path d="M88.932 88.4987H64.2959C63.8885 88.5007 63.485 88.4205 63.1098 88.2629C62.7346 88.1054 62.3956 87.8738 62.1133 87.5822C61.8311 87.2906 61.6115 86.9451 61.4679 86.5667C61.3243 86.1883 61.2596 85.7848 61.2779 85.3808L64.026 14.9553C64.068 14.1211 64.4287 13.3342 65.0347 12.7549C65.6408 12.1756 66.4465 11.8475 67.2878 11.8374H91.9239C92.3312 11.8358 92.7345 11.9163 93.1095 12.074C93.4845 12.2317 93.8233 12.4633 94.1055 12.7548C94.3877 13.0463 94.6073 13.3916 94.751 13.7699C94.8948 14.1481 94.9597 14.5514 94.9419 14.9553L92.1928 85.3818C92.1506 86.2156 91.7899 87.0021 91.1841 87.5812C90.5783 88.1603 89.7729 88.4884 88.932 88.4987Z" fill="#263238"/>
<path d="M61.5336 19.1158H61.2977L61.4626 14.9316C61.5121 13.8858 61.963 12.8985 62.7226 12.1722C63.4823 11.4459 64.4932 11.0359 65.5478 11.0261V11.2642C64.5546 11.2752 63.603 11.6622 62.8876 12.3462C62.1721 13.0302 61.7468 13.9596 61.6985 14.9445L61.5336 19.1158Z" fill="#55AB60"/>
<path d="M69.2291 11.0171H67.2214V11.2512H69.2291V11.0171Z" fill="#55AB60"/>
<path d="M87.1908 88.4987H62.5547C62.1473 88.5007 61.7438 88.4205 61.3686 88.263C60.9934 88.1054 60.6544 87.8738 60.3721 87.5822C60.0899 87.2906 59.8703 86.9451 59.7267 86.5667C59.5831 86.1883 59.5184 85.7848 59.5367 85.3808L62.2858 14.9543C62.3277 14.1201 62.6885 13.3332 63.2945 12.7539C63.9006 12.1746 64.7063 11.8465 65.5476 11.8364H90.1837C90.591 11.8349 90.9943 11.9153 91.3693 12.073C91.7443 12.2307 92.0831 12.4623 92.3653 12.7538C92.6474 13.0453 92.8671 13.3907 93.0108 13.7689C93.1546 14.1471 93.2195 14.5504 93.2016 14.9543L90.4526 85.3808C90.4106 86.215 90.0499 87.0019 89.4439 87.5812C88.8378 88.1605 88.0321 88.4886 87.1908 88.4987Z" fill="#55AB60"/>
<path opacity="0.8" d="M87.9759 80.398H62.4044C62.1766 80.3996 61.9508 80.3551 61.7408 80.2673C61.5309 80.1794 61.3411 80.0501 61.1831 79.8871C61.0251 79.7242 60.9021 79.531 60.8218 79.3193C60.7414 79.1077 60.7053 78.882 60.7156 78.6561L63.101 17.5552C63.1239 17.0883 63.3257 16.6476 63.665 16.3234C64.0044 15.9993 64.4558 15.8161 64.9267 15.8113H90.4952C90.7231 15.8101 90.9489 15.855 91.1588 15.9431C91.3687 16.0312 91.5584 16.1607 91.7163 16.3238C91.8743 16.4869 91.9972 16.6801 92.0776 16.8918C92.158 17.1035 92.1942 17.3292 92.184 17.5552L89.7987 78.6561C89.7758 79.1223 89.5743 79.5623 89.2355 79.8861C88.8967 80.2099 88.4462 80.393 87.9759 80.398Z" fill="white"/>
<path opacity="0.4" d="M77.1183 80.3982H70.7417L81.4943 15.8115H87.871L77.1183 80.3982Z" fill="white"/>
<path opacity="0.4" d="M69.6204 80.3982H66.4326L77.1873 15.8115H80.3751L69.6204 80.3982Z" fill="white"/>
<path d="M81.2206 61.5115H68.6482C68.0676 61.5115 67.6069 60.8806 67.5809 60.0513L67.2242 48.4638C67.1962 47.5095 67.7488 46.6782 68.4163 46.6782H82.5856C83.2542 46.6782 83.7429 47.5055 83.6409 48.4638L82.3988 60.0513C82.3098 60.8816 81.7992 61.5115 81.2206 61.5115Z" fill="#55AB60"/>
<path d="M81.22 61.9541H68.6476C67.8191 61.9541 67.1716 61.1406 67.1386 60.0693L66.7819 48.4818C66.7466 47.827 66.9741 47.185 67.4144 46.6962C67.5418 46.5582 67.696 46.4471 67.8677 46.3697C68.0395 46.2923 68.2252 46.2502 68.4138 46.2458H82.583C82.7712 46.2504 82.9563 46.2946 83.126 46.3755C83.2957 46.4564 83.4461 46.5721 83.5674 46.7151C83.7722 46.9658 83.9231 47.2555 84.0107 47.5664C84.0984 47.8772 84.1209 48.2026 84.077 48.5225L82.8349 60.1099C82.8337 60.5586 82.6698 60.9919 82.3733 61.3305C82.0768 61.6691 81.6674 61.8905 81.22 61.9541ZM68.4157 47.1218C68.3455 47.1273 68.277 47.1465 68.2143 47.1784C68.1515 47.2102 68.0957 47.254 68.05 47.3073C67.7776 47.6248 67.6397 48.0348 67.6652 48.4511L68.022 60.0385C68.039 60.6109 68.3218 61.0752 68.6476 61.0752H81.221C81.5208 61.0752 81.8915 60.6466 81.9605 60.0058L83.2026 48.4183C83.2323 48.2212 83.2222 48.0202 83.1728 47.8271C83.1234 47.634 83.0357 47.4525 82.9148 47.2934C82.8762 47.2427 82.8268 47.201 82.7702 47.1714C82.7135 47.1417 82.651 47.1248 82.587 47.1218H68.4157Z" fill="#55AB60"/>
<path d="M82.3993 60.4909H82.3523C82.2946 60.4847 82.2387 60.4673 82.1878 60.4397C82.1369 60.412 82.092 60.3747 82.0556 60.3299C82.0193 60.285 81.9921 60.2335 81.9758 60.1782C81.9595 60.1229 81.9543 60.065 81.9606 60.0078L83.3276 47.2726C83.5405 45.2826 84.8036 43.7817 86.2656 43.7817H87.22C87.278 43.7817 87.3354 43.7931 87.389 43.8151C87.4426 43.8371 87.4913 43.8694 87.5323 43.9102C87.5733 43.9509 87.6058 43.9992 87.628 44.0524C87.6502 44.1056 87.6617 44.1626 87.6617 44.2202C87.6617 44.2778 87.6502 44.3348 87.628 44.388C87.6058 44.4412 87.5733 44.4895 87.5323 44.5302C87.4913 44.5709 87.4426 44.6033 87.389 44.6253C87.3354 44.6473 87.278 44.6587 87.22 44.6587H86.2756C85.2833 44.6587 84.3859 45.849 84.216 47.3658L82.851 60.102C82.8389 60.2114 82.7857 60.3123 82.7019 60.3844C82.6182 60.4565 82.5101 60.4945 82.3993 60.4909Z" fill="#55AB60"/>
<path d="M71.2338 65.8238C70.9884 65.8193 70.7466 65.7649 70.5232 65.664C70.2997 65.5632 70.0995 65.4181 69.9347 65.2376C69.3156 64.5157 69.0069 63.5812 69.0753 62.6356C69.1442 60.8847 70.2135 59.4612 71.4626 59.4612C71.7081 59.4651 71.9502 59.5192 72.1737 59.6201C72.3972 59.7209 72.5974 59.8664 72.7617 60.0475C73.3809 60.7694 73.6895 61.7038 73.6212 62.6495C73.5522 64.4003 72.4829 65.8238 71.2338 65.8238ZM71.4696 59.8441C70.4253 59.8441 69.5259 61.1029 69.471 62.6574C69.4354 63.0749 69.4838 63.4952 69.6131 63.894C69.7424 64.2928 69.9502 64.6621 70.2245 64.9806C70.3535 65.1241 70.5108 65.2397 70.6866 65.3204C70.8625 65.4011 71.0531 65.4452 71.2468 65.4499C72.2901 65.4499 73.1904 64.191 73.2454 62.6366C73.2809 62.2191 73.2326 61.7987 73.1033 61.3999C72.974 61.0011 72.7662 60.6318 72.4919 60.3133C72.3617 60.1687 72.2028 60.0523 72.0252 59.9716C71.8475 59.8908 71.655 59.8474 71.4596 59.8441H71.4696Z" fill="#55AB60"/>
<path d="M78.103 65.8238C77.8576 65.8197 77.6156 65.7655 77.3921 65.6646C77.1687 65.5638 76.9684 65.4184 76.8039 65.2376C76.1827 64.5168 75.8738 63.5815 75.9445 62.6356C76.0105 60.8847 77.0827 59.4612 78.3319 59.4612C78.5774 59.4648 78.8196 59.5188 79.0431 59.6197C79.2667 59.7205 79.4668 59.8662 79.631 60.0475C80.2521 60.7682 80.5611 61.7035 80.4904 62.6495C80.4245 64.4003 79.3522 65.8238 78.103 65.8238ZM78.3389 59.8441C77.2926 59.8441 76.3952 61.1029 76.3402 62.6574C76.3048 63.0746 76.3529 63.4947 76.4817 63.8935C76.6105 64.2922 76.8175 64.6617 77.0907 64.9806C77.2198 65.1241 77.3771 65.2397 77.5529 65.3204C77.7287 65.4011 77.9194 65.4452 78.113 65.4499C79.1593 65.4499 80.0567 64.191 80.1116 62.6366C80.1471 62.2193 80.099 61.7992 79.9702 61.4005C79.8414 61.0018 79.6345 60.6323 79.3612 60.3133C79.2313 60.169 79.0729 60.0529 78.8958 59.9722C78.7187 59.8914 78.5267 59.8479 78.3319 59.8441H78.3389Z" fill="#55AB60"/>
<path d="M80.9736 35.2883C81.2713 31.2053 79.2149 27.7303 76.3806 27.5267C73.5462 27.323 71.0072 30.4678 70.7095 34.5508C70.4118 38.6337 72.4681 42.1087 75.3025 42.3124C78.1368 42.516 80.6759 39.3712 80.9736 35.2883Z" fill="#55AB60"/>
<path d="M75.5628 42.7659C74.9586 42.7567 74.3628 42.6239 73.8126 42.3759C73.2624 42.1279 72.7697 41.77 72.365 41.3245C70.8392 39.5436 70.0763 37.2406 70.2395 34.9083C70.4043 30.5922 73.0375 27.0835 76.1154 27.0835C76.7195 27.0925 77.3152 27.2249 77.8654 27.4726C78.4156 27.7202 78.9084 28.0777 79.3133 28.5229C80.8399 30.3041 81.6029 32.6081 81.4388 34.9411C81.2729 39.2543 78.6377 42.7659 75.5628 42.7659ZM76.1174 27.9624C73.5192 27.9624 71.2717 31.0941 71.1208 34.944C70.9567 37.0402 71.631 39.1161 72.9976 40.7224C73.3202 41.0808 73.7133 41.3698 74.1528 41.5714C74.5923 41.7731 75.0688 41.8832 75.5528 41.8949C78.1511 41.8949 80.3985 38.7632 80.5494 34.9133C80.7147 32.8186 80.0427 30.7435 78.6787 29.1369C78.3557 28.7772 77.9616 28.4873 77.5211 28.2851C77.0805 28.0829 76.6027 27.9727 76.1174 27.9614V27.9624Z" fill="white"/>
<path d="M72.3389 34.7606C73.5545 35.9774 74.4932 37.4387 75.092 39.046C76.0073 36.3359 77.4108 33.8133 79.2341 31.6011C77.5241 32.6909 76.1241 34.1978 75.1679 35.9778C74.3475 35.3349 73.3724 34.9154 72.3389 34.7606Z" fill="white"/>
<path d="M74.9634 86.3165C74.7551 86.3148 74.5494 86.2704 74.3592 86.1861C74.169 86.1018 73.9984 85.9793 73.8582 85.8264C73.6342 85.5775 73.4625 85.2867 73.3534 84.971C73.2442 84.6554 73.1998 84.3212 73.2226 83.9882C73.1914 83.4341 73.3705 82.8885 73.7245 82.459C74.0786 82.0295 74.582 81.7472 75.1353 81.668C75.344 81.6708 75.5498 81.7163 75.74 81.8017C75.9301 81.887 76.1005 82.0104 76.2405 82.164C76.4631 82.4117 76.6337 82.7009 76.7423 83.0149C76.8509 83.3288 76.8954 83.661 76.8731 83.9922C76.9061 84.5467 76.7282 85.0933 76.3745 85.5237C76.0209 85.9542 75.5173 86.2371 74.9634 86.3165ZM75.1353 81.916C74.6472 81.995 74.2067 82.2528 73.9007 82.6384C73.5947 83.0241 73.4455 83.5096 73.4824 83.9992C73.4606 84.2984 73.4994 84.5989 73.5964 84.8831C73.6933 85.1672 73.8465 85.4293 74.047 85.6538C74.1642 85.7825 74.3069 85.8857 74.4661 85.9571C74.6253 86.0284 74.7977 86.0663 74.9724 86.0685C75.4606 85.9896 75.9012 85.7319 76.2073 85.3462C76.5133 84.9605 76.6625 84.4749 76.6253 83.9853C76.6472 83.6856 76.6085 83.3845 76.5116 83.0999C76.4146 82.8152 76.2613 82.5527 76.0607 82.3277C75.9432 82.1997 75.8003 82.0972 75.6411 82.0265C75.4819 81.9559 75.3097 81.9186 75.1353 81.917V81.916Z" fill="white"/>
<path d="M77.7565 14.7449C77.6599 14.7425 77.565 14.7204 77.4773 14.6802C77.3897 14.6399 77.3112 14.5823 77.2469 14.5108C77.1477 14.4007 77.0718 14.272 77.0236 14.1323C76.9753 13.9926 76.9558 13.8447 76.966 13.6974C76.9545 13.45 77.0366 13.2073 77.1962 13.0169C77.3557 12.8266 77.5813 12.7024 77.8285 12.6687C77.925 12.6712 78.02 12.6932 78.1076 12.7335C78.1953 12.7738 78.2737 12.8314 78.3381 12.9028C78.4379 13.0126 78.5144 13.1412 78.5631 13.2809C78.6119 13.4207 78.6319 13.5687 78.6219 13.7162C78.6334 13.9641 78.5509 14.2072 78.3907 14.3976C78.2305 14.588 78.0042 14.712 77.7565 14.7449ZM77.8274 12.9256C77.5067 12.9256 77.2278 13.2798 77.2139 13.7192C77.1986 13.9491 77.275 14.1757 77.4267 14.3501C77.4685 14.3964 77.5194 14.4336 77.5763 14.4594C77.6333 14.4851 77.6949 14.4989 77.7575 14.4999C78.0783 14.4999 78.3571 14.1458 78.3711 13.7063C78.3875 13.4757 78.3109 13.248 78.1582 13.0734C78.1162 13.0276 78.0652 12.9909 78.0083 12.9654C77.9514 12.94 77.8898 12.9265 77.8274 12.9256Z" fill="white"/>
<path d="M48.8538 20.0493C46.1497 19.6902 44.6877 21.3171 45.4562 24.2692C46.1807 27.0468 44.7786 26.6788 44.5118 29.3115C44.245 31.9443 46.4315 32.0524 47.143 34.2021C47.8545 36.3517 51.7808 38.794 53.3158 37.6929C54.8507 36.5918 57.8977 36.8448 58.1755 33.2061C58.4533 29.5675 55.5543 29.3711 56.5486 27.3831C57.8477 24.8039 54.9756 25.4329 54.9756 22.1464C54.9846 19.4997 51.1183 16.6309 48.8538 20.0493Z" fill="#263238"/>
<path d="M45.4514 34.0563C45.3925 35.1792 45.2885 36.2645 45.1237 37.3685C44.979 38.5101 44.7267 39.6357 44.3702 40.7304C44.2595 41.0501 44.1187 41.3586 43.9495 41.652C43.8338 41.8512 43.6916 42.034 43.5268 42.1956L43.4438 42.271L43.3988 42.3057L43.3729 42.3265L43.2729 42.395L43.0731 42.5309C42.5736 42.8491 42.0481 43.1251 41.5021 43.3562C40.4678 43.8067 39.3932 44.1597 38.2923 44.4107L37.9126 43.3721C38.845 42.8582 39.8023 42.3335 40.6757 41.7849C41.1025 41.5261 41.5127 41.2411 41.9039 40.9318L42.0318 40.8217L42.0977 40.7681V40.7562C42.0977 40.7562 42.1237 40.7116 42.1567 40.6441C42.2406 40.458 42.3107 40.266 42.3665 40.0697C42.5007 39.5926 42.6065 39.108 42.6833 38.6185C42.7733 38.1125 42.8462 37.5937 42.9082 37.0709C43.0291 36.0303 43.133 34.961 43.208 33.9224L45.4514 34.0563Z" fill="#FFB573"/>
<path d="M38.6167 43.3958L36.813 42.8423L37.1508 45.0088C37.8032 44.928 38.4144 44.6487 38.9005 44.2093L38.6167 43.3958Z" fill="#FFB573"/>
<path d="M35.331 44.237L35.4309 44.5207C35.4879 44.6818 35.5957 44.8203 35.7383 44.9157C35.8808 45.0112 36.0506 45.0584 36.2224 45.0505L37.1437 45.0078L36.806 42.8413L35.7927 43.2381C35.6007 43.3133 35.4455 43.4592 35.3594 43.6454C35.2734 43.8316 35.2632 44.0436 35.331 44.237Z" fill="#FFB573"/>
<path d="M47.5875 31.963C47.4884 32.986 47.2834 33.9963 46.976 34.9777C46.7681 35.6998 46.5932 36.2484 46.5932 36.2484L46.1795 36.1492L42.7669 35.2911C42.7129 33.5522 42.7808 31.6386 44.5237 30.4949C45.6189 29.7727 47.5736 30.7577 47.5875 31.963Z" fill="#55AB60"/>
<g opacity="0.5">
<path opacity="0.5" d="M47.5875 31.9642C47.4884 32.9873 47.2834 33.9975 46.976 34.9789C46.7681 35.7011 46.5932 36.2496 46.5932 36.2496L46.1795 36.1504L42.7669 35.2924C42.7129 33.5534 42.7808 31.6398 44.5237 30.4961C45.6189 29.7739 47.5736 30.7589 47.5875 31.9642Z" fill="black"/>
</g>
<path opacity="0.3" d="M47.5783 32.0803C47.3565 31.8462 46.8508 31.8065 45.7506 32.1527C44.1727 32.6487 43.7309 34.3629 43.71 35.5255L46.1753 36.1445L46.3881 36.198L46.588 36.2476C46.588 36.2476 46.6749 35.9738 46.7978 35.5532C46.8478 35.3816 46.9088 35.1852 46.9677 34.9739C47.2619 34.0304 47.4663 33.0616 47.5783 32.0803Z" fill="black"/>
<path d="M40.5787 86.3969L38.4961 85.6727L39.8042 81.1948L41.8848 81.922L40.5787 86.3969Z" fill="#FFB573"/>
<path d="M68.4032 81.0915L66.7103 82.3434L63.2407 78.8486L64.9336 77.5947L68.4032 81.0915Z" fill="#FFB573"/>
<path d="M66.0156 81.8347L67.8453 80.3318C67.876 80.3051 67.9154 80.2903 67.9563 80.2903C67.9971 80.2903 68.0365 80.3051 68.0672 80.3318L69.4722 81.5976C69.5067 81.6305 69.5338 81.6704 69.5516 81.7144C69.5695 81.7585 69.5776 81.8058 69.5757 81.8533C69.5737 81.9007 69.5616 81.9472 69.5401 81.9897C69.5187 82.0322 69.4884 82.0696 69.4512 82.0996C68.8047 82.6124 68.4639 82.8287 67.6615 83.4884C67.1618 83.8941 66.1315 84.8643 65.446 85.4247C64.7605 85.9852 64.1659 85.3454 64.4017 85.0498C65.1318 84.2305 65.6219 83.2284 65.8187 82.1521C65.8446 82.0266 65.9143 81.9142 66.0156 81.8347Z" fill="#263238"/>
<path d="M38.3541 85.0278L40.6685 85.987C40.7094 86.0052 40.7435 86.0359 40.7656 86.0746C40.7877 86.1133 40.7968 86.1581 40.7914 86.2023L40.5296 88.228C40.5237 88.2759 40.5066 88.3217 40.4797 88.3619C40.4527 88.4021 40.4167 88.4355 40.3745 88.4594C40.3323 88.4833 40.285 88.4971 40.2364 88.4996C40.1879 88.5021 40.1394 88.4933 40.0949 88.474C39.2754 88.1436 38.8907 87.978 37.8754 87.5574L34.7555 86.2678C33.9101 85.9166 34.092 84.995 34.4747 85.0625C35.6225 85.349 36.8257 85.3329 37.9653 85.0159C38.0915 84.9694 38.231 84.9737 38.3541 85.0278Z" fill="#263238"/>
<path opacity="0.2" d="M39.801 81.1968L39.1274 83.5032L41.1541 84.4128L41.8835 81.9209L39.801 81.1968Z" fill="black"/>
<path opacity="0.2" d="M64.9366 77.5989L63.2407 78.8488L65.0285 80.6493L66.7273 79.3954L64.9366 77.5989Z" fill="black"/>
<path d="M53.9891 42.9109L45.41 43.0329C44.6341 39.325 44.1486 35.563 43.958 31.7807C43.9569 31.4035 44.0879 31.0376 44.3288 30.7459C44.5697 30.4541 44.9053 30.2546 45.2781 30.1816C45.8028 30.0824 46.4593 29.9634 47.1079 29.8741C47.3327 29.8433 47.5585 29.8156 47.7814 29.7917C49.0774 29.68 50.3799 29.6611 51.6787 29.7352C51.8726 29.7352 52.0635 29.7521 52.2553 29.763C53.1247 29.8195 53.9412 29.9296 54.5158 30.0189C54.6215 30.0356 54.7226 30.0736 54.813 30.1305C54.9034 30.1874 54.9812 30.262 55.0415 30.3498C55.1019 30.4375 55.1435 30.5366 55.164 30.6409C55.1844 30.7452 55.1832 30.8525 55.1603 30.9564C54.9095 32.1289 54.7046 33.1576 54.5388 34.0791C54.2769 35.5443 54.111 36.7278 54.0141 37.7664C53.8675 39.4778 53.8591 41.1981 53.9891 42.9109Z" fill="#55AB60"/>
<g opacity="0.5">
<path opacity="0.5" d="M53.9891 42.9109L45.41 43.0329C44.6341 39.325 44.1486 35.563 43.958 31.7807C43.9569 31.4035 44.0879 31.0376 44.3288 30.7459C44.5697 30.4541 44.9053 30.2546 45.2781 30.1816C45.8028 30.0824 46.4593 29.9634 47.1079 29.8741C47.3327 29.8433 47.5585 29.8156 47.7814 29.7917C49.0774 29.68 50.3799 29.6611 51.6787 29.7352C51.8726 29.7352 52.0635 29.7521 52.2553 29.763C53.1247 29.8195 53.9412 29.9296 54.5158 30.0189C54.6215 30.0356 54.7226 30.0736 54.813 30.1305C54.9034 30.1874 54.9812 30.262 55.0415 30.3498C55.1019 30.4375 55.1435 30.5366 55.164 30.6409C55.1844 30.7452 55.1832 30.8525 55.1603 30.9564C54.9095 32.1289 54.7046 33.1576 54.5388 34.0791C54.2769 35.5443 54.111 36.7278 54.0141 37.7664C53.8675 39.4778 53.8591 41.1981 53.9891 42.9109Z" fill="black"/>
</g>
<path opacity="0.3" d="M54.0093 37.7742C53.5747 36.1946 53.5944 34.526 54.0663 32.957L54.5393 34.0869C54.2723 35.5521 54.1063 36.7355 54.0093 37.7742Z" fill="black"/>
<path d="M51.0336 27.1054C50.8923 28.0355 51.1229 28.9835 51.6761 29.7471C50.8079 30.7238 49.7594 31.5265 48.5873 32.112C48.2609 31.8309 48.0145 31.4696 47.8728 31.0644C47.7312 30.6591 47.6991 30.2241 47.7798 29.8027C49.1729 29.4515 49.1968 28.5299 48.7881 27.0013L49.8934 26.5559C49.995 26.4673 50.1207 26.4104 50.2547 26.3924C50.3887 26.3744 50.5251 26.396 50.6469 26.4546C50.7686 26.5131 50.8702 26.606 50.939 26.7216C51.0078 26.8372 51.0407 26.9704 51.0336 27.1044V27.1054Z" fill="#FFB573"/>
<path opacity="0.2" d="M49.8948 26.5547C49.99 26.4723 50.1061 26.4175 50.2306 26.3963C50.355 26.3751 50.483 26.3883 50.6003 26.4346C50.7177 26.4808 50.82 26.5582 50.896 26.6583C50.9719 26.7584 51.0187 26.8773 51.0311 27.0021C50.5436 27.7483 49.8312 28.3225 48.9955 28.6428C49.0303 28.0833 48.9598 27.5222 48.7876 26.9882L49.8948 26.5547Z" fill="black"/>
<path d="M53.0286 24.0322C52.2821 25.9775 52.0063 26.8147 50.6672 27.52C50.2509 27.7798 49.7705 27.9207 49.2787 27.9273C48.787 27.9339 48.303 27.8059 47.8797 27.5574C47.4564 27.3089 47.1103 26.9494 46.8793 26.5185C46.6482 26.0875 46.5412 25.6017 46.57 25.1144C46.7019 23.1989 47.9021 20.3419 50.1126 20.1544C50.5983 20.1116 51.0869 20.1928 51.5321 20.3902C51.9773 20.5876 52.3643 20.8947 52.6562 21.2823C52.9482 21.6699 53.1355 22.1253 53.2003 22.605C53.2652 23.0847 53.2053 23.5729 53.0266 24.0232L53.0286 24.0322Z" fill="#FFB573"/>
<path d="M49.2775 20.1505C47.8865 22.0987 51.8758 21.6206 51.6759 22.9945C51.56 23.8288 50.3608 25.3832 52.4673 25.6729C54.5739 25.9625 55.0956 22.5501 54.0123 21.2684C52.929 19.9868 50.6406 19.1545 49.2775 20.1505Z" fill="#263238"/>
<path d="M49.7183 20.092C49.4305 20.7953 47.8975 21.7585 47.3379 21.58C47.5349 21.1209 47.8684 20.7325 48.2938 20.4666C48.7191 20.2007 49.2161 20.07 49.7183 20.092Z" fill="#263238"/>
<path d="M52.9022 26.017C52.691 26.3605 52.3515 26.6073 51.9579 26.7035C51.4332 26.8255 51.1954 26.3563 51.3583 25.8762C51.5042 25.4476 51.9579 24.8633 52.4705 24.9546C52.5831 24.9763 52.6885 25.0256 52.777 25.098C52.8655 25.1704 52.9344 25.2637 52.9773 25.3693C53.0202 25.4749 53.0358 25.5895 53.0227 25.7026C53.0096 25.8158 52.9682 25.9238 52.9022 26.017Z" fill="#FFB573"/>
<path d="M45.408 43.0328C45.408 43.0328 43.956 55.4327 42.6169 63.1465C41.5686 69.1927 38.9194 81.7811 38.9194 81.7811L42.3581 82.9903C42.3581 82.9903 46.2974 69.8623 46.9869 64.2644C49.764 56.1866 51.7596 42.9644 51.7596 42.9644L45.408 43.0328Z" fill="#55AB60"/>
<path d="M38.3589 82.6323L42.3402 84.0211L42.8718 82.7523L38.5548 81.1135L38.3589 82.6323Z" fill="#263238"/>
<path opacity="0.3" d="M49.7563 46.7161L48.4712 49.1614C48.025 52.2072 48.1047 55.3062 48.707 58.3254C49.7773 54.0519 50.6317 49.5552 51.1633 46.5386L49.7563 46.7161Z" fill="black"/>
<path d="M47.2715 43.0327C47.2715 43.0327 48.8084 56.9058 51.6785 64.5997C53.1165 68.4684 63.7932 79.917 63.7932 79.917L66.2015 78.0045C66.2015 78.0045 59.4312 66.4497 56.4722 63.4301C55.265 56.7183 56.782 46.6654 53.9739 42.9058L47.2715 43.0327Z" fill="#55AB60"/>
<path d="M63.9992 80.7475L66.8233 78.448L66.0608 77.2051L62.9629 79.8775L63.9992 80.7475Z" fill="#263238"/>
<path d="M54.1198 42.4118L54.5195 43.1667C54.5505 43.2253 54.4816 43.2887 54.3826 43.2887L45.3828 43.4177C45.3049 43.4177 45.2409 43.38 45.2339 43.3334L45.147 42.5715C45.147 42.52 45.2079 42.4723 45.2909 42.4723L53.9849 42.3483C54.0109 42.3471 54.0369 42.3522 54.0604 42.3633C54.0839 42.3743 54.1044 42.391 54.1198 42.4118Z" fill="#263238"/>
<path d="M52.9565 43.3918H53.1925C53.2375 43.3918 53.2725 43.366 53.2705 43.3383L53.1455 42.3463C53.1455 42.3155 53.1025 42.2947 53.0555 42.2947H52.8195C52.7745 42.2947 52.7395 42.3205 52.7435 42.3482L52.8665 43.3402C52.8695 43.368 52.9115 43.3918 52.9565 43.3918Z" fill="#55AB60"/>
<path d="M46.0255 43.4891H46.2615C46.3085 43.4891 46.3415 43.4633 46.3395 43.4355L46.2165 42.4436C46.2165 42.4128 46.1715 42.39 46.1245 42.392H45.8885C45.8415 42.392 45.8055 42.4178 45.8105 42.4455L45.9335 43.4375C45.9375 43.4653 45.9805 43.4891 46.0255 43.4891Z" fill="#55AB60"/>
<path d="M49.4919 43.4334H49.7279C49.7749 43.4334 49.8109 43.4077 49.8059 43.3799L49.6829 42.3879C49.6829 42.3571 49.6379 42.3343 49.5929 42.3363H49.3569C49.3099 42.3363 49.2769 42.3621 49.2789 42.3899L49.4019 43.3819C49.3979 43.4176 49.4449 43.4334 49.4919 43.4334Z" fill="#55AB60"/>
<path d="M49.5815 23.5559C49.5315 23.7176 49.4045 23.8207 49.2975 23.79C49.1905 23.7592 49.1465 23.6005 49.1975 23.4388C49.2485 23.2771 49.3775 23.172 49.4835 23.2047C49.5895 23.2374 49.6335 23.3942 49.5815 23.5559Z" fill="#263238"/>
<path d="M47.7444 22.9845C47.6924 23.1462 47.5644 23.2494 47.4584 23.2186C47.3524 23.1879 47.3074 23.0291 47.3584 22.8674C47.4094 22.7058 47.5354 22.6026 47.6424 22.6333C47.7494 22.6641 47.7944 22.8228 47.7444 22.9845Z" fill="#263238"/>
<path d="M47.6885 22.6553L47.3345 22.4211C47.3345 22.4211 47.4375 22.7872 47.6885 22.6553Z" fill="#263238"/>
<path d="M48.2029 23.4111C47.9423 23.7349 47.6377 24.0214 47.2979 24.2623C47.3625 24.3466 47.4447 24.4161 47.539 24.4659C47.6332 24.5158 47.7372 24.5448 47.8439 24.5509L48.2029 23.4111Z" fill="#ED893E"/>
<path d="M48.381 25.4448C48.3727 25.4389 48.3666 25.4305 48.3635 25.4209C48.3604 25.4112 48.3606 25.4008 48.364 25.3913C48.3684 25.3787 48.3775 25.3682 48.3894 25.3621C48.4013 25.356 48.4152 25.3547 48.428 25.3585C48.6289 25.4262 48.8431 25.4457 49.053 25.4155C49.263 25.3853 49.4628 25.3063 49.636 25.1849C49.6464 25.1765 49.6597 25.1725 49.673 25.1738C49.6863 25.1751 49.6986 25.1816 49.707 25.1919C49.7155 25.2021 49.7196 25.2153 49.7182 25.2285C49.7169 25.2417 49.7104 25.2539 49.7 25.2623C49.5145 25.3949 49.2997 25.4815 49.0736 25.515C48.8474 25.5485 48.6165 25.5278 48.4 25.4548L48.381 25.4448Z" fill="#263238"/>
<path d="M50.288 23.1196C50.2743 23.1081 50.2636 23.0935 50.257 23.0769C50.2184 22.9586 50.1521 22.851 50.0634 22.763C49.9747 22.6751 49.8663 22.6093 49.747 22.571C49.7339 22.5681 49.7214 22.5626 49.7104 22.5549C49.6994 22.5472 49.6901 22.5374 49.6829 22.5262C49.6683 22.5034 49.6635 22.4758 49.6695 22.4495C49.6755 22.4232 49.6917 22.4003 49.7147 22.3859C49.7377 22.3715 49.7655 22.3667 49.792 22.3726C49.944 22.4188 50.0828 22.5004 50.1967 22.6104C50.3106 22.7205 50.3964 22.8559 50.447 23.0055C50.4518 23.0178 50.4541 23.0309 50.4537 23.0441C50.4533 23.0573 50.4503 23.0702 50.4448 23.0822C50.4393 23.0943 50.4314 23.1051 50.4217 23.114C50.4119 23.123 50.4005 23.1299 50.388 23.1345C50.3714 23.1404 50.3536 23.1422 50.3361 23.1396C50.3186 23.137 50.3021 23.1301 50.288 23.1196Z" fill="#263238"/>
<path d="M47.1969 21.937V21.9201C47.1922 21.8944 47.198 21.8678 47.213 21.8463C47.228 21.8247 47.251 21.8099 47.2769 21.8051C47.4328 21.7737 47.594 21.7799 47.747 21.8233C47.9 21.8666 48.0402 21.9457 48.1559 22.0541C48.1653 22.0633 48.1727 22.0742 48.1778 22.0863C48.1829 22.0984 48.1855 22.1114 48.1855 22.1245C48.1855 22.1376 48.1829 22.1506 48.1778 22.1626C48.1727 22.1747 48.1653 22.1857 48.1559 22.1949C48.1466 22.2042 48.1355 22.2116 48.1233 22.2166C48.1112 22.2217 48.0981 22.2243 48.0849 22.2243C48.0717 22.2243 48.0586 22.2217 48.0464 22.2166C48.0342 22.2116 48.0232 22.2042 48.0139 22.1949C47.9198 22.109 47.8062 22.047 47.6828 22.014C47.5594 21.981 47.4297 21.9781 47.3049 22.0054C47.2815 22.0086 47.2577 22.0035 47.2378 21.991C47.2178 21.9785 47.203 21.9593 47.1959 21.937H47.1969Z" fill="#263238"/>
<path d="M39.0484 31.1953C38.809 30.8661 38.6757 30.4727 38.6661 30.0668C38.6565 29.6609 38.7709 29.2616 38.9945 28.9216C39.5941 28.3026 40.0567 28.1281 39.9088 27.0458C39.7609 25.9635 41.4228 25.9953 41.5617 25.1699C42.3901 25.8732 43.2695 27.514 42.7989 28.2669C42.3282 29.0198 42.582 29.5843 42.4801 30.4959C42.3782 31.4076 40.3715 33.3192 39.0484 31.1953Z" fill="#55AB60"/>
<path opacity="0.5" d="M39.0484 31.1953C38.809 30.8661 38.6757 30.4727 38.6661 30.0668C38.6565 29.6609 38.7709 29.2616 38.9945 28.9216C39.5941 28.3026 40.0567 28.1281 39.9088 27.0458C39.7609 25.9635 41.4228 25.9953 41.5617 25.1699C42.3901 25.8732 43.2695 27.514 42.7989 28.2669C42.3282 29.0198 42.582 29.5843 42.4801 30.4959C42.3782 31.4076 40.3715 33.3192 39.0484 31.1953Z" fill="white"/>
<path d="M41.6306 26.9089C41.2497 29.5297 40.51 32.0865 39.4321 34.5086C39.6901 34.4877 39.9321 34.3762 40.1147 34.1941C40.1147 34.1941 41.7905 29.6677 41.6306 26.9089Z" fill="#55AB60"/>
<path d="M38.2529 32.4274C37.7212 32.0306 37.0367 31.1259 37.3605 30.3313C37.6842 29.5367 38.055 29.2034 37.5144 28.2481C36.9737 27.2929 38.5347 26.7145 38.3578 25.9041C39.3941 26.2651 40.8181 27.4674 40.6562 28.3305C40.4943 29.1935 40.942 29.6359 41.1849 30.5198C41.4277 31.4037 40.2725 33.9184 38.2529 32.4274Z" fill="#55AB60"/>
<path opacity="0.6" d="M38.2529 32.4274C37.7212 32.0306 37.0367 31.1259 37.3605 30.3313C37.6842 29.5367 38.055 29.2034 37.5144 28.2481C36.9737 27.2929 38.5347 26.7145 38.3578 25.9041C39.3941 26.2651 40.8181 27.4674 40.6562 28.3305C40.4943 29.1935 40.942 29.6359 41.1849 30.5198C41.4277 31.4037 40.2725 33.9184 38.2529 32.4274Z" fill="white"/>
<path d="M42.0486 33.1823C42.6062 33.1426 43.5106 32.8073 43.6475 32.0911C43.7844 31.3749 43.6715 30.9751 44.4929 30.5416C45.3144 30.1081 44.4689 28.9921 44.9656 28.4951C44.0662 28.2838 42.5003 28.4951 42.2165 29.1846C41.9327 29.874 41.417 29.9782 40.8374 30.5019C40.2578 31.0257 39.9271 33.3321 42.0486 33.1823Z" fill="#55AB60"/>
<path opacity="0.7" d="M42.0486 33.1823C42.6062 33.1426 43.5106 32.8073 43.6475 32.0911C43.7844 31.3749 43.6715 30.9751 44.4929 30.5416C45.3144 30.1081 44.4689 28.9921 44.9656 28.4951C44.0662 28.2838 42.5003 28.4951 42.2165 29.1846C41.9327 29.874 41.417 29.9782 40.8374 30.5019C40.2578 31.0257 39.9271 33.3321 42.0486 33.1823Z" fill="white"/>
<path d="M38.9424 28.521C39.4239 30.7683 39.5038 33.0821 39.1784 35.3568C39.4309 35.3063 39.6556 35.165 39.8094 34.96C39.8094 34.96 40.0574 30.8254 38.9424 28.521Z" fill="#55AB60"/>
<path d="M43.3566 29.7192C41.7886 31.3758 40.4568 33.2379 39.3983 35.2536C39.2746 35.0701 39.2201 34.8491 39.2444 34.6296C39.2444 34.6296 41.406 31.0882 43.3566 29.7192Z" fill="#55AB60"/>
<path d="M36.6888 31.9184C36.0202 31.5553 34.7002 32.5701 35.3897 33.7496C36.0792 34.9291 37.5152 35.4747 38.1768 34.8408C39.0882 34.6791 39.4849 33.2159 38.9372 31.964C38.8519 31.7392 38.7007 31.5449 38.5031 31.4062C38.3055 31.2675 38.0706 31.1907 37.8286 31.1858C37.5866 31.1809 37.3487 31.2481 37.1455 31.3786C36.9424 31.5092 36.7833 31.6972 36.6888 31.9184Z" fill="#55AB60"/>
<path d="M36.688 31.9146C36.688 31.9146 36.4519 31.1527 36.8419 30.9087C36.8946 30.9746 36.9434 31.0435 36.988 31.115C36.988 31.115 36.723 31.1914 36.688 31.9146Z" fill="#263238"/>
<path d="M44.242 29.9305C44.1621 31.5415 42.4943 32.7646 40.6835 33.1584C40.5721 33.2721 40.4911 33.4115 40.4476 33.5641C40.4333 33.5988 40.4312 33.6371 40.4415 33.6731C40.4518 33.7091 40.4741 33.7406 40.5046 33.7625C40.6421 33.8754 40.8038 33.9555 40.9773 33.9966C41.934 34.0198 42.8669 33.6985 43.6035 33.0919C44.5478 32.3747 45.4102 30.9542 45.1384 30.2955C44.8666 29.6368 44.6518 29.8571 44.5478 29.3581C44.4902 29.1553 44.4655 28.9446 44.4749 28.7341C44.4749 28.7341 44.239 28.8442 44.1751 28.9871C44.2645 29.2933 44.2873 29.6148 44.242 29.9305Z" fill="#55AB60"/>
<path opacity="0.2" d="M45.1511 30.3054C45.0887 30.1283 44.9861 29.9677 44.8513 29.8362C44.8416 30.5955 44.594 31.333 44.1428 31.9462C43.7122 32.5109 43.1521 32.9656 42.5091 33.2725C41.866 33.5794 41.1586 33.7297 40.4453 33.7109C40.4568 33.7337 40.474 33.7532 40.4953 33.7674C40.6327 33.8803 40.7944 33.9604 40.9679 34.0016C41.9247 34.0249 42.8576 33.7035 43.5942 33.0969C44.5395 32.3866 45.4079 30.9661 45.1511 30.3054Z" fill="black"/>
<path d="M44.247 29.3205C44.2123 29.1998 44.1712 29.0809 44.124 28.9644C44.2209 28.8399 44.3523 28.7461 44.502 28.6946V29.0815C44.502 29.0815 44.372 29.3037 44.247 29.3205Z" fill="#263238"/>
<path d="M40.5036 33.4045C40.468 33.444 40.4346 33.4854 40.4036 33.5285C40.3874 33.5751 40.3863 33.6256 40.4007 33.6728C40.4151 33.72 40.4441 33.7615 40.4836 33.7914C40.4982 33.8067 40.5158 33.8189 40.5351 33.8274C40.5545 33.8359 40.5754 33.8405 40.5966 33.841C40.5502 33.7691 40.5164 33.69 40.4966 33.6069C40.4949 33.5394 40.4972 33.4718 40.5036 33.4045Z" fill="#263238"/>
<path d="M45.541 30.6537C45.1232 32.2101 43.2365 33.0612 41.3798 33.0702C41.2441 33.1557 41.1327 33.2742 41.056 33.4144C41.0318 33.4443 41.0186 33.4816 41.0186 33.52C41.0186 33.5585 41.0318 33.5957 41.056 33.6257C41.1678 33.7699 41.3128 33.8856 41.4787 33.963C42.4089 34.1867 43.3892 34.0668 44.2369 33.6257C45.3021 33.1148 46.4523 31.9076 46.3264 31.2092C46.2005 30.5108 45.9417 30.6795 45.9467 30.1725C45.9307 29.9627 45.9506 29.7518 46.0056 29.5486C45.8765 29.5765 45.7577 29.6397 45.6629 29.7311C45.6961 30.0439 45.6543 30.36 45.541 30.6537Z" fill="#55AB60"/>
<path opacity="0.2" d="M46.3396 31.2123C46.3169 31.0252 46.2517 30.8458 46.1487 30.6875C45.9806 31.4269 45.5854 32.0963 45.0175 32.603C44.4786 33.0669 43.8359 33.3962 43.1428 33.5634C42.4497 33.7306 41.7264 33.7309 41.0332 33.5643C41.0395 33.5885 41.0515 33.6109 41.0682 33.6297C41.1808 33.7732 41.3255 33.8887 41.4909 33.967C42.4214 34.1891 43.4015 34.0682 44.249 33.6268C45.3143 33.1189 46.4645 31.9116 46.3396 31.2123Z" fill="black"/>
<path d="M45.6729 30.0705C45.6729 30.0705 45.6519 29.7957 45.6279 29.6975C45.749 29.5969 45.8964 29.5325 46.0529 29.512L45.9679 29.8889C45.9679 29.8889 45.7979 30.0705 45.6729 30.0705Z" fill="#263238"/>
<path d="M41.1531 33.2776C41.1531 33.2776 41.0701 33.3381 41.0281 33.3768C41.0029 33.4189 40.9917 33.4678 40.996 33.5165C41.0003 33.5653 41.0199 33.6115 41.0521 33.6486C41.1091 33.719 41.1521 33.721 41.1521 33.721C41.1215 33.6417 41.1046 33.5579 41.1021 33.473C41.1181 33.3966 41.1531 33.2776 41.1531 33.2776Z" fill="#263238"/>
<path d="M46.6378 32.4035L35.1108 33.9739L36.8841 46.7821L48.4111 45.2117L46.6378 32.4035Z" fill="#55AB60"/>
<path opacity="0.8" d="M46.6378 32.4035L35.1108 33.9739L36.8841 46.7821L48.4111 45.2117L46.6378 32.4035Z" fill="white"/>
<path opacity="0.2" d="M46.6371 32.4029L43.2354 32.8667L45.0074 45.6751L48.4091 45.2114L46.6371 32.4029Z" fill="#55AB60"/>
<path opacity="0.2" d="M48.4164 45.2102L46.5437 44.2113L44.9448 32.6357L46.6437 32.4036L48.4164 45.2102Z" fill="#55AB60"/>
<path opacity="0.3" d="M46.5397 44.2112L45.0098 45.6744L48.4124 45.2101L46.5397 44.2112Z" fill="#55AB60"/>
<path d="M50.271 43.4147L48.5142 42.7302L48.687 44.9126C49.3443 44.8796 49.9752 44.6461 50.4938 44.244L50.271 43.4147Z" fill="#FFB573"/>
<path d="M55.8141 32.5256C56.2868 33.838 56.6925 35.1415 57.0423 36.4936C57.2172 37.1662 57.382 37.8437 57.5149 38.547C57.5789 38.8962 57.6359 39.2504 57.6778 39.6204C57.7248 40.0094 57.7415 40.4014 57.7278 40.7929C57.7198 41.0468 57.6802 41.2987 57.6099 41.5429C57.5138 41.8434 57.3524 42.1194 57.1372 42.3513C56.8235 42.6846 56.451 42.9579 56.038 43.1578C55.3606 43.4847 54.6473 43.7324 53.9124 43.8959C52.5376 44.2125 51.1356 44.3985 49.7253 44.4514L49.5884 43.3542C50.2309 43.2015 50.8875 43.0328 51.53 42.8582C52.1726 42.6836 52.8082 42.4833 53.4198 42.263C54.0033 42.0647 54.5657 41.8095 55.0986 41.5012C55.2925 41.3887 55.4658 41.2445 55.6112 41.0746C55.6492 41.0161 55.6492 40.9992 55.6422 40.9992C55.6483 40.9134 55.6483 40.8272 55.6422 40.7413C55.6316 40.4582 55.6015 40.1762 55.5523 39.8971C55.5053 39.5926 55.4414 39.2801 55.3704 38.9597C55.2215 38.3337 55.0586 37.6959 54.8708 37.0581C54.502 35.7923 54.0893 34.5047 53.6716 33.2557L55.8141 32.5256Z" fill="#FFB573"/>
<path d="M46.8853 43.8075L47.0222 44.3135C47.0659 44.4745 47.1608 44.6172 47.2928 44.7203C47.4248 44.8235 47.5868 44.8815 47.7547 44.8858L48.6991 44.9116L48.5272 42.7292L47.5639 42.8394C47.4514 42.8505 47.3426 42.8859 47.2452 42.9428C47.1478 42.9998 47.064 43.077 46.9996 43.1693C46.9352 43.2615 46.8917 43.3665 46.8721 43.477C46.8526 43.5876 46.8574 43.701 46.8863 43.8095L46.8853 43.8075Z" fill="#FFB573"/>
<path d="M54.8125 30.0824C55.7998 30.4792 56.6112 33.7021 56.6112 33.7021L53.8841 35.8121C53.8841 35.8121 51.9524 32.8093 52.3471 31.5059C52.6779 30.4057 53.5563 29.5784 54.8125 30.0824Z" fill="#55AB60"/>
<g opacity="0.5">
<path opacity="0.5" d="M54.8125 30.0824C55.7998 30.4792 56.6112 33.7021 56.6112 33.7021L53.8841 35.8121C53.8841 35.8121 51.9524 32.8093 52.3471 31.5059C52.6779 30.4057 53.5563 29.5784 54.8125 30.0824Z" fill="black"/>
</g>
<path d="M65.3474 82.7443H65.3124C65.2631 82.7414 65.2153 82.7258 65.1739 82.699C65.1325 82.6722 65.0989 82.6352 65.0764 82.5915C65.0589 82.5667 65.0484 82.5378 65.046 82.5076C65.0435 82.4774 65.0492 82.4472 65.0624 82.4199C65.1824 82.1858 65.9414 82.0916 66.0264 82.0827C66.0364 82.081 66.0467 82.0826 66.0557 82.0873C66.0647 82.0919 66.072 82.0994 66.0764 82.1084C66.0815 82.1164 66.0843 82.1257 66.0843 82.1352C66.0843 82.1447 66.0815 82.154 66.0764 82.162C65.9144 82.3763 65.6074 82.7255 65.3474 82.7443ZM65.9214 82.1977C65.6214 82.2424 65.2124 82.3386 65.1554 82.4646C65.1482 82.4758 65.1444 82.4889 65.1444 82.5022C65.1444 82.5156 65.1482 82.5287 65.1554 82.54C65.1697 82.5687 65.1916 82.593 65.2187 82.6105C65.2458 82.628 65.2771 82.6378 65.3094 82.6391C65.4564 82.6461 65.6924 82.4824 65.9284 82.1938L65.9214 82.1977Z" fill="#263238"/>
<path d="M65.9895 82.1886C65.7315 82.2055 65.2215 82.0994 65.1125 81.9029C65.0941 81.8678 65.0884 81.8276 65.0962 81.7888C65.104 81.75 65.1249 81.715 65.1555 81.6897C65.1817 81.6618 65.2137 81.64 65.2493 81.6258C65.2849 81.6116 65.3232 81.6052 65.3615 81.6073C65.6685 81.6073 66.0615 82.0765 66.0705 82.1033C66.0751 82.1103 66.0775 82.1183 66.0775 82.1266C66.0775 82.1349 66.0751 82.143 66.0705 82.1499C66.0682 82.1585 66.0633 82.1662 66.0566 82.1721C66.0498 82.1779 66.0414 82.1816 66.0325 82.1827L65.9895 82.1886ZM65.3375 81.7055C65.296 81.7089 65.2573 81.7273 65.2285 81.7571C65.1835 81.8037 65.1905 81.8345 65.2025 81.8563C65.2715 81.9853 65.6755 82.0904 65.9325 82.0904C65.7935 81.9426 65.5405 81.7105 65.3585 81.7036L65.3375 81.7055Z" fill="#263238"/>
<path d="M37.1688 84.9803C37.0074 84.9267 36.8659 84.8261 36.7628 84.6916C36.7384 84.6514 36.7236 84.6062 36.7195 84.5595C36.7153 84.5127 36.7219 84.4657 36.7388 84.4218C36.7469 84.3971 36.7614 84.3748 36.7809 84.3574C36.8004 84.34 36.8241 84.328 36.8498 84.3226C37.1188 84.271 37.7568 84.9506 37.8828 85.0894C37.8886 85.0977 37.8917 85.1076 37.8917 85.1177C37.8917 85.1278 37.8886 85.1377 37.8828 85.146C37.8776 85.1553 37.8696 85.1627 37.8599 85.1674C37.8503 85.172 37.8394 85.1735 37.8288 85.1718C37.603 85.1296 37.3819 85.0655 37.1688 84.9803ZM36.9688 84.4317C36.9379 84.4164 36.9033 84.4099 36.8688 84.4129C36.8688 84.4129 36.8428 84.4129 36.8338 84.4476C36.8218 84.478 36.8172 84.5108 36.8201 84.5433C36.8231 84.5759 36.8336 84.6073 36.8508 84.6351C37.0804 84.8611 37.3818 85.0014 37.7038 85.0319C37.4912 84.7944 37.2433 84.5903 36.9688 84.4268V84.4317Z" fill="#263238"/>
<path d="M37.8263 85.1587C37.8197 85.1562 37.8139 85.1521 37.8093 85.1468C37.5923 84.9335 37.2423 84.2957 37.3623 84.0923C37.3903 84.0477 37.4473 84.0011 37.5723 84.0358C38.0453 84.1717 37.9003 85.0813 37.8933 85.121C37.8921 85.1301 37.8881 85.1386 37.8818 85.1454C37.8755 85.1521 37.8673 85.1567 37.8583 85.1587C37.8533 85.1609 37.8478 85.162 37.8423 85.162C37.8368 85.162 37.8313 85.1609 37.8263 85.1587ZM37.5903 84.1409H37.5573C37.5073 84.127 37.4743 84.129 37.4623 84.1409C37.3913 84.2609 37.6163 84.7411 37.8213 84.997C37.8263 84.7738 37.8543 84.258 37.5893 84.1429L37.5903 84.1409Z" fill="#263238"/>
<path d="M49.5308 23.2275L49.1738 22.9934C49.1738 22.9934 49.2768 23.3595 49.5308 23.2275Z" fill="#263238"/>
</svg>
