<svg width="20" height="16" viewBox="0 0 20 16" fill="none" xmlns="http://www.w3.org/2000/svg">
<path d="M16.4262 4.36367H3.28553V2.90912H16.4262V4.36367ZM14.7836 0H4.92811V1.45456H14.7836V0Z" fill="#55AB60"/>
<path d="M8.46788 13.891L5.75763 11.4909L6.90743 10.4727L8.46788 11.8546L12.8207 8L13.9705 9.01819L8.46788 13.891Z" fill="#55AB60"/>
<path d="M18.0684 5.81816H1.64258C1.20694 5.81816 0.789144 5.97141 0.4811 6.24419C0.173057 6.51697 0 6.88694 0 7.27272L0 14.5455C0 14.9313 0.173057 15.3013 0.4811 15.574C0.789144 15.8468 1.20694 16.0001 1.64258 16.0001H18.0684C18.504 16.0001 18.9218 15.8468 19.2299 15.574C19.5379 15.3013 19.711 14.9313 19.711 14.5455V7.27272C19.711 6.88694 19.5379 6.51697 19.2299 6.24419C18.9218 5.97141 18.504 5.81816 18.0684 5.81816ZM18.0684 14.5455H1.64258V7.27272H18.0684V14.5455Z" fill="#55AB60"/>
</svg>
