<svg width="18" height="18" viewBox="0 0 18 18" fill="none" xmlns="http://www.w3.org/2000/svg">
<path d="M8.77353 1.28571C12.9096 1.28571 16.2937 4.75714 16.2937 9C16.2937 13.2429 12.9096 16.7143 8.77353 16.7143C4.63744 16.7143 1.25336 13.2429 1.25336 9C1.25336 4.75714 4.63744 1.28571 8.77353 1.28571ZM8.77353 0C3.94809 0 0 4.05 0 9C0 13.95 3.94809 18 8.77353 18C13.599 18 17.5471 13.95 17.5471 9C17.5471 4.05 13.599 0 8.77353 0Z" fill="#55AB60"/>
<path d="M13.7876 8.35718H9.40084V3.85718H8.14748V8.35718H3.76071V9.64289H8.14748V14.1429H9.40084V9.64289H13.7876V8.35718Z" fill="#55AB60"/>
</svg>
