<svg width="31" height="37" viewBox="0 0 31 37" fill="none" xmlns="http://www.w3.org/2000/svg">
<path d="M21.8148 7.69382L19.8982 8.36922L19.0757 5.89889C17.5647 1.34364 12.7491 -1.0753 8.32416 0.462692C3.89924 2.00068 1.5435 6.9964 3.05445 11.5516L3.87691 14.022L1.95287 14.701C1.2192 14.9817 0.623413 15.5305 0.289344 16.2332C-0.0447253 16.936 -0.0913777 17.7387 0.159088 18.4744L5.49206 34.5481C5.60276 34.9124 5.78656 35.2509 6.03255 35.5437C6.27853 35.8365 6.58168 36.0776 6.92398 36.2525C7.26627 36.4275 7.64073 36.5328 8.02511 36.5623C8.40949 36.5917 8.79594 36.5446 9.1615 36.4238L29.0234 29.4166C29.7668 29.1364 30.371 28.5828 30.709 27.8722C31.047 27.1616 31.0925 26.3494 30.8358 25.6065L25.4991 9.53281C25.3855 9.16958 25.1989 8.83264 24.9504 8.5421C24.7019 8.25156 24.3967 8.01336 24.0528 7.84173C23.7089 7.6701 23.3336 7.56855 22.949 7.54314C22.5645 7.51772 22.1788 7.56897 21.8148 7.69382ZM6.6755 10.2633C6.2681 9.07883 6.34124 7.78485 6.87958 6.65241C7.41793 5.51998 8.37971 4.63697 9.56343 4.18838C10.1479 3.99113 10.7667 3.91203 11.3829 3.9558C11.9991 3.99957 12.6 4.16532 13.1498 4.44314C13.6996 4.72097 14.1871 5.10519 14.5831 5.57287C14.9791 6.04055 15.2755 6.58212 15.4546 7.16525L16.2734 9.63558L7.49425 12.7336L6.6755 10.2633ZM17.8401 24.5273L19.2022 28.6311C19.2272 28.7133 19.2192 28.802 19.1797 28.8785C19.1402 28.9551 19.0723 29.0137 18.9901 29.0422L17.081 29.7139C17.005 29.7347 16.9238 29.7256 16.8544 29.6887C16.785 29.6517 16.7329 29.5897 16.7088 29.5157L15.3355 25.4303C14.5783 25.3896 13.8518 25.1217 13.2532 24.6625C12.6546 24.2033 12.2125 23.5747 11.9862 22.8608C11.6625 21.9171 11.7215 20.8864 12.1509 19.9847C12.5803 19.0829 13.3468 18.3799 14.2898 18.023C14.7554 17.8661 15.2483 17.8032 15.739 17.8382C16.2298 17.8731 16.7084 18.0052 17.1463 18.2265C17.5843 18.4477 17.9725 18.7537 18.288 19.1261C18.6035 19.4985 18.8397 19.9298 18.9827 20.3942C19.2221 21.1193 19.2419 21.8976 19.0396 22.6337C18.8374 23.3698 18.4218 24.0317 17.8439 24.5383L17.8401 24.5273Z" fill="#55AB60"/>
<path d="M19.8119 8.32538C19.8119 8.37677 16.2578 9.69452 11.8366 11.2619C7.41544 12.8292 3.80925 14.0883 3.79064 14.0516C3.77203 14.0148 7.34472 12.6861 11.7696 11.1151C16.1946 9.54403 19.7933 8.27766 19.8119 8.32538Z" fill="#263238"/>
<path d="M24.0326 9.00075C24.049 9.0326 24.0627 9.06575 24.0735 9.09986C24.1033 9.17327 24.1368 9.2687 24.1814 9.38616C24.2782 9.65412 24.4122 10.0249 24.5796 10.4874L26.0087 14.5911C26.6042 16.331 27.315 18.3939 28.1039 20.6843C28.4761 21.8332 28.9152 23.0299 29.3246 24.2889C29.5437 24.9377 29.6384 25.6211 29.6037 26.3041C29.5722 26.6593 29.4697 27.0048 29.3023 27.3208C29.1234 27.6358 28.8846 27.9137 28.5989 28.1394C28.0239 28.5533 27.3858 28.8743 26.7084 29.0901L24.7918 29.7691L21.1633 31.0502L15.019 33.2085L10.8695 34.6474L9.75299 35.0145L9.45526 35.1099C9.42343 35.1239 9.38949 35.1325 9.35479 35.1356C9.35479 35.1356 9.38456 35.1356 9.44783 35.0915L9.73811 34.9777L10.8546 34.563L14.9818 33.0654L21.1149 30.863L24.7359 29.5709L26.6525 28.8882C27.3107 28.6812 27.9303 28.37 28.4873 27.9669C28.7531 27.7575 28.9755 27.4995 29.1423 27.207C29.2999 26.9148 29.3949 26.5937 29.4214 26.2637C29.4556 25.6056 29.3648 24.947 29.1534 24.3219C28.7515 23.0739 28.3272 21.8663 27.9439 20.7174C27.1698 18.4232 26.4553 16.353 25.8896 14.6131C25.3239 12.8733 24.8476 11.4748 24.5201 10.491C24.3638 10.0102 24.2447 9.63577 24.1479 9.36414L24.0586 9.07049C24.0474 9.04825 24.0386 9.02486 24.0326 9.00075Z" fill="#263238"/>
<path d="M13.5526 3.93872C13.5526 3.93872 13.3554 3.84329 12.9907 3.69646C12.4708 3.49945 11.921 3.39025 11.3644 3.37345C10.5393 3.34554 9.7182 3.49849 8.96026 3.82126C8.03858 4.22319 7.25048 4.87329 6.6864 5.69695C6.11855 6.51826 5.81387 7.48885 5.81184 8.48296C5.81959 9.29773 5.9449 10.1073 6.18399 10.8872C6.37751 11.5553 6.57847 12.0875 6.71245 12.4582C6.79148 12.6466 6.85617 12.8404 6.90597 13.0382C6.80026 12.8621 6.71177 12.6765 6.64173 12.4839C6.48915 12.1169 6.26959 11.5956 6.05374 10.9239C5.78878 10.1358 5.64453 9.31308 5.62576 8.48296C5.61584 7.4513 5.92764 6.44156 6.51893 5.5905C7.10268 4.73676 7.92299 4.06655 8.88211 3.65976C9.66369 3.33521 10.5104 3.19205 11.3569 3.2413C11.9257 3.26989 12.4843 3.4005 13.0056 3.62672C13.1449 3.69013 13.2793 3.76375 13.4075 3.84696C13.4604 3.8699 13.5094 3.90086 13.5526 3.93872Z" fill="#263238"/>
<path d="M13.7241 18.3021C13.7835 18.2666 13.8457 18.2359 13.9101 18.2103C14.0964 18.1274 14.2894 18.0599 14.487 18.0084C14.8007 17.9171 15.1242 17.8629 15.4509 17.8469C15.8952 17.8234 16.3397 17.8896 16.7571 18.0415C17.7098 18.3718 18.5844 19.3299 19.0161 20.6109C19.2231 21.2984 19.2231 22.0304 19.0161 22.7178C18.7865 23.464 18.3751 24.1433 17.8178 24.6963L17.8401 24.5972C18.3351 25.937 18.8747 27.3906 19.4329 28.9065L19.4664 28.9983L19.3734 29.0313L18.5211 29.3103L16.6604 29.9233L16.5673 29.9526L16.5375 29.8609C16.0277 28.3412 15.4695 26.9244 15.0489 25.5332L15.1308 25.5956C14.4033 25.536 13.7096 25.2667 13.1361 24.8211C12.6172 24.4269 12.1917 23.9259 11.8893 23.3529C11.6165 22.8447 11.4807 22.2759 11.4949 21.7011C11.5121 21.1136 11.6608 20.5371 11.9304 20.0129C12.2 19.4888 12.5837 19.0299 13.0542 18.6691C13.2478 18.5141 13.4651 18.3902 13.698 18.3021C13.4878 18.4251 13.2841 18.5586 13.0877 18.7022C12.5709 19.1334 12.1749 19.6883 11.9377 20.3136C11.7341 20.7851 11.6389 21.2953 11.6588 21.8074C11.6788 22.3196 11.8134 22.821 12.0531 23.2758C12.3504 23.827 12.7656 24.308 13.27 24.6853C13.8171 25.1088 14.4785 25.3641 15.1717 25.4194H15.235L15.2536 25.4745C15.663 26.84 16.2249 28.2678 16.7422 29.7948L16.6194 29.7361L18.4802 29.1231L19.3287 28.8404L19.2692 28.9652C18.7147 27.4493 18.1788 25.992 17.6875 24.6523V24.5972L17.7322 24.5532C18.2732 24.0231 18.6766 23.3721 18.9082 22.6554C19.1056 21.9978 19.1056 21.2979 18.9082 20.6403C18.5025 19.4069 17.6652 18.4709 16.7571 18.1406C16.3552 17.9877 15.9261 17.9165 15.4955 17.9314C15.1741 17.9386 14.8544 17.9817 14.5428 18.0598C13.9883 18.1956 13.7278 18.3204 13.7241 18.3021Z" fill="#263238"/>
</svg>
